<mxfile host="app.diagrams.net" modified="2024-07-11T09:29:49.259Z" agent="Mozilla/5.0 (Windows NT 10.0; Win64; x64) AppleWebKit/537.36 (KHTML, like Gecko) Chrome/126.0.0.0 Safari/537.36" etag="d6f9_WqKPXGK1KZ1VEht" version="24.6.4" type="device" pages="2">
  <diagram name="Page-1" id="8nJoItVmpEbjNiTMhOtf">
    <mxGraphModel dx="1038" dy="617" grid="1" gridSize="10" guides="1" tooltips="1" connect="1" arrows="1" fold="1" page="1" pageScale="1" pageWidth="1700" pageHeight="1100" background="none" math="0" shadow="0">
      <root>
        <mxCell id="0" />
        <mxCell id="1" parent="0" />
        <mxCell id="Nde2O9VggLIkUx--WPAP-4" value="&lt;div style=&quot;font-family: Consolas, &amp;quot;Courier New&amp;quot;, monospace; line-height: 19px; white-space-collapse: preserve;&quot;&gt;&lt;font style=&quot;font-size: 15px;&quot; color=&quot;#000000&quot;&gt;albumcomment&lt;/font&gt;&lt;/div&gt;" style="shape=table;startSize=30;container=1;collapsible=1;childLayout=tableLayout;fixedRows=1;rowLines=0;fontStyle=1;align=center;resizeLast=1;html=1;rounded=1;fillColor=#008a00;strokeColor=#005700;fontColor=#ffffff;swimlaneLine=1;sketch=1;curveFitting=1;jiggle=2;shadow=0;" parent="1" vertex="1">
          <mxGeometry x="80" y="40" width="180" height="150" as="geometry" />
        </mxCell>
        <mxCell id="Nde2O9VggLIkUx--WPAP-5" value="" style="shape=tableRow;horizontal=0;startSize=0;swimlaneHead=0;swimlaneBody=0;fillColor=none;collapsible=0;dropTarget=0;points=[[0,0.5],[1,0.5]];portConstraint=eastwest;top=0;left=0;right=0;bottom=1;rounded=1;swimlaneLine=1;sketch=1;curveFitting=1;jiggle=2;shadow=0;" parent="Nde2O9VggLIkUx--WPAP-4" vertex="1">
          <mxGeometry y="30" width="180" height="30" as="geometry" />
        </mxCell>
        <mxCell id="Nde2O9VggLIkUx--WPAP-6" value="PK" style="shape=partialRectangle;connectable=0;fillColor=none;top=0;left=0;bottom=0;right=0;fontStyle=1;overflow=hidden;whiteSpace=wrap;html=1;rounded=1;swimlaneLine=1;sketch=1;curveFitting=1;jiggle=2;shadow=0;" parent="Nde2O9VggLIkUx--WPAP-5" vertex="1">
          <mxGeometry width="30" height="30" as="geometry">
            <mxRectangle width="30" height="30" as="alternateBounds" />
          </mxGeometry>
        </mxCell>
        <mxCell id="Nde2O9VggLIkUx--WPAP-7" value="&lt;font style=&quot;font-size: 14px;&quot;&gt;id&lt;/font&gt;" style="shape=partialRectangle;connectable=0;fillColor=none;top=0;left=0;bottom=0;right=0;align=left;spacingLeft=6;fontStyle=5;overflow=hidden;whiteSpace=wrap;html=1;rounded=1;swimlaneLine=1;sketch=1;curveFitting=1;jiggle=2;shadow=0;" parent="Nde2O9VggLIkUx--WPAP-5" vertex="1">
          <mxGeometry x="30" width="150" height="30" as="geometry">
            <mxRectangle width="150" height="30" as="alternateBounds" />
          </mxGeometry>
        </mxCell>
        <mxCell id="Nde2O9VggLIkUx--WPAP-8" value="" style="shape=tableRow;horizontal=0;startSize=0;swimlaneHead=0;swimlaneBody=0;fillColor=none;collapsible=0;dropTarget=0;points=[[0,0.5],[1,0.5]];portConstraint=eastwest;top=0;left=0;right=0;bottom=0;rounded=1;swimlaneLine=1;sketch=1;curveFitting=1;jiggle=2;shadow=0;" parent="Nde2O9VggLIkUx--WPAP-4" vertex="1">
          <mxGeometry y="60" width="180" height="30" as="geometry" />
        </mxCell>
        <mxCell id="Nde2O9VggLIkUx--WPAP-9" value="" style="shape=partialRectangle;connectable=0;fillColor=none;top=0;left=0;bottom=0;right=0;editable=1;overflow=hidden;whiteSpace=wrap;html=1;rounded=1;swimlaneLine=1;sketch=1;curveFitting=1;jiggle=2;shadow=0;" parent="Nde2O9VggLIkUx--WPAP-8" vertex="1">
          <mxGeometry width="30" height="30" as="geometry">
            <mxRectangle width="30" height="30" as="alternateBounds" />
          </mxGeometry>
        </mxCell>
        <mxCell id="Nde2O9VggLIkUx--WPAP-10" value="&lt;div style=&quot;font-family: Consolas, &amp;quot;Courier New&amp;quot;, monospace; font-size: 14px; line-height: 19px; white-space: pre;&quot;&gt;album_id (FK)&lt;/div&gt;" style="shape=partialRectangle;connectable=0;fillColor=none;top=0;left=0;bottom=0;right=0;align=left;spacingLeft=6;overflow=hidden;whiteSpace=wrap;html=1;rounded=1;swimlaneLine=1;sketch=1;curveFitting=1;jiggle=2;shadow=0;" parent="Nde2O9VggLIkUx--WPAP-8" vertex="1">
          <mxGeometry x="30" width="150" height="30" as="geometry">
            <mxRectangle width="150" height="30" as="alternateBounds" />
          </mxGeometry>
        </mxCell>
        <mxCell id="Nde2O9VggLIkUx--WPAP-11" value="" style="shape=tableRow;horizontal=0;startSize=0;swimlaneHead=0;swimlaneBody=0;fillColor=none;collapsible=0;dropTarget=0;points=[[0,0.5],[1,0.5]];portConstraint=eastwest;top=0;left=0;right=0;bottom=0;rounded=1;swimlaneLine=1;sketch=1;curveFitting=1;jiggle=2;shadow=0;" parent="Nde2O9VggLIkUx--WPAP-4" vertex="1">
          <mxGeometry y="90" width="180" height="30" as="geometry" />
        </mxCell>
        <mxCell id="Nde2O9VggLIkUx--WPAP-12" value="" style="shape=partialRectangle;connectable=0;fillColor=none;top=0;left=0;bottom=0;right=0;editable=1;overflow=hidden;whiteSpace=wrap;html=1;rounded=1;swimlaneLine=1;sketch=1;curveFitting=1;jiggle=2;shadow=0;" parent="Nde2O9VggLIkUx--WPAP-11" vertex="1">
          <mxGeometry width="30" height="30" as="geometry">
            <mxRectangle width="30" height="30" as="alternateBounds" />
          </mxGeometry>
        </mxCell>
        <mxCell id="Nde2O9VggLIkUx--WPAP-13" value="&lt;div style=&quot;color: rgb(204, 204, 204); font-family: Consolas, &amp;quot;Courier New&amp;quot;, monospace; line-height: 19px; white-space: pre;&quot;&gt;&lt;span style=&quot;color: rgb(0, 0, 0); font-family: Helvetica; white-space: normal;&quot;&gt;&lt;font style=&quot;font-size: 14px;&quot;&gt;user_id (FK)&lt;/font&gt;&lt;/span&gt;&lt;/div&gt;" style="shape=partialRectangle;connectable=0;fillColor=none;top=0;left=0;bottom=0;right=0;align=left;spacingLeft=6;overflow=hidden;whiteSpace=wrap;html=1;rounded=1;swimlaneLine=1;sketch=1;curveFitting=1;jiggle=2;shadow=0;" parent="Nde2O9VggLIkUx--WPAP-11" vertex="1">
          <mxGeometry x="30" width="150" height="30" as="geometry">
            <mxRectangle width="150" height="30" as="alternateBounds" />
          </mxGeometry>
        </mxCell>
        <mxCell id="Nde2O9VggLIkUx--WPAP-14" value="" style="shape=tableRow;horizontal=0;startSize=0;swimlaneHead=0;swimlaneBody=0;fillColor=none;collapsible=0;dropTarget=0;points=[[0,0.5],[1,0.5]];portConstraint=eastwest;top=0;left=0;right=0;bottom=0;rounded=1;swimlaneLine=1;sketch=1;curveFitting=1;jiggle=2;shadow=0;" parent="Nde2O9VggLIkUx--WPAP-4" vertex="1">
          <mxGeometry y="120" width="180" height="30" as="geometry" />
        </mxCell>
        <mxCell id="Nde2O9VggLIkUx--WPAP-15" value="" style="shape=partialRectangle;connectable=0;fillColor=none;top=0;left=0;bottom=0;right=0;editable=1;overflow=hidden;whiteSpace=wrap;html=1;rounded=1;swimlaneLine=1;sketch=1;curveFitting=1;jiggle=2;shadow=0;" parent="Nde2O9VggLIkUx--WPAP-14" vertex="1">
          <mxGeometry width="30" height="30" as="geometry">
            <mxRectangle width="30" height="30" as="alternateBounds" />
          </mxGeometry>
        </mxCell>
        <mxCell id="Nde2O9VggLIkUx--WPAP-16" value="&lt;font style=&quot;font-size: 14px;&quot;&gt;text&lt;/font&gt;" style="shape=partialRectangle;connectable=0;fillColor=none;top=0;left=0;bottom=0;right=0;align=left;spacingLeft=6;overflow=hidden;whiteSpace=wrap;html=1;rounded=1;swimlaneLine=1;sketch=1;curveFitting=1;jiggle=2;shadow=0;" parent="Nde2O9VggLIkUx--WPAP-14" vertex="1">
          <mxGeometry x="30" width="150" height="30" as="geometry">
            <mxRectangle width="150" height="30" as="alternateBounds" />
          </mxGeometry>
        </mxCell>
        <mxCell id="Nde2O9VggLIkUx--WPAP-39" value="&lt;div style=&quot;font-family: Consolas, &amp;quot;Courier New&amp;quot;, monospace; line-height: 19px; white-space-collapse: preserve;&quot;&gt;&lt;font color=&quot;#000000&quot; style=&quot;font-size: 16px;&quot;&gt;albumlikes&lt;/font&gt;&lt;/div&gt;" style="shape=table;startSize=30;container=1;collapsible=1;childLayout=tableLayout;fixedRows=1;rowLines=0;fontStyle=1;align=center;resizeLast=1;html=1;rounded=1;fillColor=#008a00;strokeColor=#005700;fontColor=#ffffff;swimlaneLine=1;sketch=1;curveFitting=1;jiggle=2;shadow=0;" parent="1" vertex="1">
          <mxGeometry x="400" y="40" width="180" height="120" as="geometry" />
        </mxCell>
        <mxCell id="Nde2O9VggLIkUx--WPAP-40" value="" style="shape=tableRow;horizontal=0;startSize=0;swimlaneHead=0;swimlaneBody=0;fillColor=none;collapsible=0;dropTarget=0;points=[[0,0.5],[1,0.5]];portConstraint=eastwest;top=0;left=0;right=0;bottom=1;rounded=1;swimlaneLine=1;sketch=1;curveFitting=1;jiggle=2;shadow=0;" parent="Nde2O9VggLIkUx--WPAP-39" vertex="1">
          <mxGeometry y="30" width="180" height="30" as="geometry" />
        </mxCell>
        <mxCell id="Nde2O9VggLIkUx--WPAP-41" value="PK" style="shape=partialRectangle;connectable=0;fillColor=none;top=0;left=0;bottom=0;right=0;fontStyle=1;overflow=hidden;whiteSpace=wrap;html=1;rounded=1;swimlaneLine=1;sketch=1;curveFitting=1;jiggle=2;shadow=0;" parent="Nde2O9VggLIkUx--WPAP-40" vertex="1">
          <mxGeometry width="30" height="30" as="geometry">
            <mxRectangle width="30" height="30" as="alternateBounds" />
          </mxGeometry>
        </mxCell>
        <mxCell id="Nde2O9VggLIkUx--WPAP-42" value="&lt;font style=&quot;font-size: 14px;&quot;&gt;id&lt;/font&gt;" style="shape=partialRectangle;connectable=0;fillColor=none;top=0;left=0;bottom=0;right=0;align=left;spacingLeft=6;fontStyle=5;overflow=hidden;whiteSpace=wrap;html=1;rounded=1;swimlaneLine=1;sketch=1;curveFitting=1;jiggle=2;shadow=0;" parent="Nde2O9VggLIkUx--WPAP-40" vertex="1">
          <mxGeometry x="30" width="150" height="30" as="geometry">
            <mxRectangle width="150" height="30" as="alternateBounds" />
          </mxGeometry>
        </mxCell>
        <mxCell id="Nde2O9VggLIkUx--WPAP-43" value="" style="shape=tableRow;horizontal=0;startSize=0;swimlaneHead=0;swimlaneBody=0;fillColor=none;collapsible=0;dropTarget=0;points=[[0,0.5],[1,0.5]];portConstraint=eastwest;top=0;left=0;right=0;bottom=0;rounded=1;swimlaneLine=1;sketch=1;curveFitting=1;jiggle=2;shadow=0;" parent="Nde2O9VggLIkUx--WPAP-39" vertex="1">
          <mxGeometry y="60" width="180" height="30" as="geometry" />
        </mxCell>
        <mxCell id="Nde2O9VggLIkUx--WPAP-44" value="" style="shape=partialRectangle;connectable=0;fillColor=none;top=0;left=0;bottom=0;right=0;editable=1;overflow=hidden;whiteSpace=wrap;html=1;rounded=1;swimlaneLine=1;sketch=1;curveFitting=1;jiggle=2;shadow=0;" parent="Nde2O9VggLIkUx--WPAP-43" vertex="1">
          <mxGeometry width="30" height="30" as="geometry">
            <mxRectangle width="30" height="30" as="alternateBounds" />
          </mxGeometry>
        </mxCell>
        <mxCell id="Nde2O9VggLIkUx--WPAP-45" value="&lt;span style=&quot;font-family: Consolas, &amp;quot;Courier New&amp;quot;, monospace; font-size: 14px; white-space: pre;&quot;&gt;album_id (FK)&lt;/span&gt;" style="shape=partialRectangle;connectable=0;fillColor=none;top=0;left=0;bottom=0;right=0;align=left;spacingLeft=6;overflow=hidden;whiteSpace=wrap;html=1;rounded=1;swimlaneLine=1;sketch=1;curveFitting=1;jiggle=2;shadow=0;" parent="Nde2O9VggLIkUx--WPAP-43" vertex="1">
          <mxGeometry x="30" width="150" height="30" as="geometry">
            <mxRectangle width="150" height="30" as="alternateBounds" />
          </mxGeometry>
        </mxCell>
        <mxCell id="Nde2O9VggLIkUx--WPAP-46" value="" style="shape=tableRow;horizontal=0;startSize=0;swimlaneHead=0;swimlaneBody=0;fillColor=none;collapsible=0;dropTarget=0;points=[[0,0.5],[1,0.5]];portConstraint=eastwest;top=0;left=0;right=0;bottom=0;rounded=1;swimlaneLine=1;sketch=1;curveFitting=1;jiggle=2;shadow=0;" parent="Nde2O9VggLIkUx--WPAP-39" vertex="1">
          <mxGeometry y="90" width="180" height="30" as="geometry" />
        </mxCell>
        <mxCell id="Nde2O9VggLIkUx--WPAP-47" value="" style="shape=partialRectangle;connectable=0;fillColor=none;top=0;left=0;bottom=0;right=0;editable=1;overflow=hidden;whiteSpace=wrap;html=1;rounded=1;swimlaneLine=1;sketch=1;curveFitting=1;jiggle=2;shadow=0;" parent="Nde2O9VggLIkUx--WPAP-46" vertex="1">
          <mxGeometry width="30" height="30" as="geometry">
            <mxRectangle width="30" height="30" as="alternateBounds" />
          </mxGeometry>
        </mxCell>
        <mxCell id="Nde2O9VggLIkUx--WPAP-48" value="&lt;font style=&quot;font-size: 14px;&quot;&gt;user_id (FK)&lt;/font&gt;" style="shape=partialRectangle;connectable=0;fillColor=none;top=0;left=0;bottom=0;right=0;align=left;spacingLeft=6;overflow=hidden;whiteSpace=wrap;html=1;rounded=1;swimlaneLine=1;sketch=1;curveFitting=1;jiggle=2;shadow=0;" parent="Nde2O9VggLIkUx--WPAP-46" vertex="1">
          <mxGeometry x="30" width="150" height="30" as="geometry">
            <mxRectangle width="150" height="30" as="alternateBounds" />
          </mxGeometry>
        </mxCell>
        <mxCell id="5DvCQ0Pam5PTUCkzxXY4-17" value="&lt;div style=&quot;font-family: Consolas, &amp;quot;Courier New&amp;quot;, monospace; font-size: 14px; line-height: 19px; white-space-collapse: preserve;&quot;&gt;&lt;font style=&quot;&quot; color=&quot;#000000&quot;&gt;musiccomments&lt;/font&gt;&lt;/div&gt;" style="shape=table;startSize=30;container=1;collapsible=1;childLayout=tableLayout;fixedRows=1;rowLines=0;fontStyle=1;align=center;resizeLast=1;html=1;rounded=1;fillColor=#008a00;fontColor=#ffffff;strokeColor=#005700;swimlaneLine=1;sketch=1;curveFitting=1;jiggle=2;shadow=0;" parent="1" vertex="1">
          <mxGeometry x="70" y="660" width="180" height="150" as="geometry" />
        </mxCell>
        <mxCell id="5DvCQ0Pam5PTUCkzxXY4-18" value="" style="shape=tableRow;horizontal=0;startSize=0;swimlaneHead=0;swimlaneBody=0;fillColor=none;collapsible=0;dropTarget=0;points=[[0,0.5],[1,0.5]];portConstraint=eastwest;top=0;left=0;right=0;bottom=1;rounded=1;swimlaneLine=1;sketch=1;curveFitting=1;jiggle=2;shadow=0;" parent="5DvCQ0Pam5PTUCkzxXY4-17" vertex="1">
          <mxGeometry y="30" width="180" height="30" as="geometry" />
        </mxCell>
        <mxCell id="5DvCQ0Pam5PTUCkzxXY4-19" value="PK" style="shape=partialRectangle;connectable=0;fillColor=none;top=0;left=0;bottom=0;right=0;fontStyle=1;overflow=hidden;whiteSpace=wrap;html=1;rounded=1;swimlaneLine=1;sketch=1;curveFitting=1;jiggle=2;shadow=0;" parent="5DvCQ0Pam5PTUCkzxXY4-18" vertex="1">
          <mxGeometry width="30" height="30" as="geometry">
            <mxRectangle width="30" height="30" as="alternateBounds" />
          </mxGeometry>
        </mxCell>
        <mxCell id="5DvCQ0Pam5PTUCkzxXY4-20" value="&lt;font style=&quot;font-size: 14px;&quot;&gt;id&lt;/font&gt;" style="shape=partialRectangle;connectable=0;fillColor=none;top=0;left=0;bottom=0;right=0;align=left;spacingLeft=6;fontStyle=5;overflow=hidden;whiteSpace=wrap;html=1;rounded=1;swimlaneLine=1;sketch=1;curveFitting=1;jiggle=2;shadow=0;" parent="5DvCQ0Pam5PTUCkzxXY4-18" vertex="1">
          <mxGeometry x="30" width="150" height="30" as="geometry">
            <mxRectangle width="150" height="30" as="alternateBounds" />
          </mxGeometry>
        </mxCell>
        <mxCell id="5DvCQ0Pam5PTUCkzxXY4-21" value="" style="shape=tableRow;horizontal=0;startSize=0;swimlaneHead=0;swimlaneBody=0;fillColor=none;collapsible=0;dropTarget=0;points=[[0,0.5],[1,0.5]];portConstraint=eastwest;top=0;left=0;right=0;bottom=0;rounded=1;swimlaneLine=1;sketch=1;curveFitting=1;jiggle=2;shadow=0;" parent="5DvCQ0Pam5PTUCkzxXY4-17" vertex="1">
          <mxGeometry y="60" width="180" height="30" as="geometry" />
        </mxCell>
        <mxCell id="5DvCQ0Pam5PTUCkzxXY4-22" value="" style="shape=partialRectangle;connectable=0;fillColor=none;top=0;left=0;bottom=0;right=0;editable=1;overflow=hidden;whiteSpace=wrap;html=1;rounded=1;swimlaneLine=1;sketch=1;curveFitting=1;jiggle=2;shadow=0;" parent="5DvCQ0Pam5PTUCkzxXY4-21" vertex="1">
          <mxGeometry width="30" height="30" as="geometry">
            <mxRectangle width="30" height="30" as="alternateBounds" />
          </mxGeometry>
        </mxCell>
        <mxCell id="5DvCQ0Pam5PTUCkzxXY4-23" value="&lt;font style=&quot;font-size: 14px;&quot;&gt;music_id&amp;nbsp;&lt;/font&gt;&lt;span style=&quot;font-size: 14px;&quot;&gt;(FK)&lt;/span&gt;" style="shape=partialRectangle;connectable=0;fillColor=none;top=0;left=0;bottom=0;right=0;align=left;spacingLeft=6;overflow=hidden;whiteSpace=wrap;html=1;rounded=1;swimlaneLine=1;sketch=1;curveFitting=1;jiggle=2;shadow=0;" parent="5DvCQ0Pam5PTUCkzxXY4-21" vertex="1">
          <mxGeometry x="30" width="150" height="30" as="geometry">
            <mxRectangle width="150" height="30" as="alternateBounds" />
          </mxGeometry>
        </mxCell>
        <mxCell id="5DvCQ0Pam5PTUCkzxXY4-24" value="" style="shape=tableRow;horizontal=0;startSize=0;swimlaneHead=0;swimlaneBody=0;fillColor=none;collapsible=0;dropTarget=0;points=[[0,0.5],[1,0.5]];portConstraint=eastwest;top=0;left=0;right=0;bottom=0;rounded=1;swimlaneLine=1;sketch=1;curveFitting=1;jiggle=2;shadow=0;" parent="5DvCQ0Pam5PTUCkzxXY4-17" vertex="1">
          <mxGeometry y="90" width="180" height="30" as="geometry" />
        </mxCell>
        <mxCell id="5DvCQ0Pam5PTUCkzxXY4-25" value="" style="shape=partialRectangle;connectable=0;fillColor=none;top=0;left=0;bottom=0;right=0;editable=1;overflow=hidden;whiteSpace=wrap;html=1;rounded=1;swimlaneLine=1;sketch=1;curveFitting=1;jiggle=2;shadow=0;" parent="5DvCQ0Pam5PTUCkzxXY4-24" vertex="1">
          <mxGeometry width="30" height="30" as="geometry">
            <mxRectangle width="30" height="30" as="alternateBounds" />
          </mxGeometry>
        </mxCell>
        <mxCell id="5DvCQ0Pam5PTUCkzxXY4-26" value="&lt;font style=&quot;font-size: 14px;&quot;&gt;user_id&amp;nbsp;&lt;/font&gt;&lt;span style=&quot;font-size: 14px;&quot;&gt;(FK)&lt;/span&gt;" style="shape=partialRectangle;connectable=0;fillColor=none;top=0;left=0;bottom=0;right=0;align=left;spacingLeft=6;overflow=hidden;whiteSpace=wrap;html=1;rounded=1;swimlaneLine=1;sketch=1;curveFitting=1;jiggle=2;shadow=0;" parent="5DvCQ0Pam5PTUCkzxXY4-24" vertex="1">
          <mxGeometry x="30" width="150" height="30" as="geometry">
            <mxRectangle width="150" height="30" as="alternateBounds" />
          </mxGeometry>
        </mxCell>
        <mxCell id="5DvCQ0Pam5PTUCkzxXY4-27" value="" style="shape=tableRow;horizontal=0;startSize=0;swimlaneHead=0;swimlaneBody=0;fillColor=none;collapsible=0;dropTarget=0;points=[[0,0.5],[1,0.5]];portConstraint=eastwest;top=0;left=0;right=0;bottom=0;rounded=1;swimlaneLine=1;sketch=1;curveFitting=1;jiggle=2;shadow=0;" parent="5DvCQ0Pam5PTUCkzxXY4-17" vertex="1">
          <mxGeometry y="120" width="180" height="30" as="geometry" />
        </mxCell>
        <mxCell id="5DvCQ0Pam5PTUCkzxXY4-28" value="" style="shape=partialRectangle;connectable=0;fillColor=none;top=0;left=0;bottom=0;right=0;editable=1;overflow=hidden;whiteSpace=wrap;html=1;rounded=1;swimlaneLine=1;sketch=1;curveFitting=1;jiggle=2;shadow=0;" parent="5DvCQ0Pam5PTUCkzxXY4-27" vertex="1">
          <mxGeometry width="30" height="30" as="geometry">
            <mxRectangle width="30" height="30" as="alternateBounds" />
          </mxGeometry>
        </mxCell>
        <mxCell id="5DvCQ0Pam5PTUCkzxXY4-29" value="&lt;font style=&quot;font-size: 14px;&quot;&gt;text&lt;/font&gt;" style="shape=partialRectangle;connectable=0;fillColor=none;top=0;left=0;bottom=0;right=0;align=left;spacingLeft=6;overflow=hidden;whiteSpace=wrap;html=1;rounded=1;swimlaneLine=1;sketch=1;curveFitting=1;jiggle=2;shadow=0;" parent="5DvCQ0Pam5PTUCkzxXY4-27" vertex="1">
          <mxGeometry x="30" width="150" height="30" as="geometry">
            <mxRectangle width="150" height="30" as="alternateBounds" />
          </mxGeometry>
        </mxCell>
        <mxCell id="i_E2YTDbspMcnR8c5cFk-1" value="&lt;div style=&quot;font-family: Consolas, &amp;quot;Courier New&amp;quot;, monospace; font-size: 14px; line-height: 19px; white-space-collapse: preserve;&quot;&gt;&lt;font style=&quot;&quot; color=&quot;#000000&quot;&gt;musiclikes&lt;/font&gt;&lt;/div&gt;" style="shape=table;startSize=30;container=1;collapsible=1;childLayout=tableLayout;fixedRows=1;rowLines=0;fontStyle=1;align=center;resizeLast=1;html=1;fillColor=#008a00;fontColor=#ffffff;strokeColor=#005700;rounded=1;swimlaneLine=1;sketch=1;curveFitting=1;jiggle=2;shadow=0;" parent="1" vertex="1">
          <mxGeometry x="411" y="660" width="180" height="120" as="geometry" />
        </mxCell>
        <mxCell id="i_E2YTDbspMcnR8c5cFk-2" value="" style="shape=tableRow;horizontal=0;startSize=0;swimlaneHead=0;swimlaneBody=0;fillColor=none;collapsible=0;dropTarget=0;points=[[0,0.5],[1,0.5]];portConstraint=eastwest;top=0;left=0;right=0;bottom=1;rounded=1;swimlaneLine=1;sketch=1;curveFitting=1;jiggle=2;shadow=0;" parent="i_E2YTDbspMcnR8c5cFk-1" vertex="1">
          <mxGeometry y="30" width="180" height="30" as="geometry" />
        </mxCell>
        <mxCell id="i_E2YTDbspMcnR8c5cFk-3" value="PK" style="shape=partialRectangle;connectable=0;fillColor=none;top=0;left=0;bottom=0;right=0;fontStyle=1;overflow=hidden;whiteSpace=wrap;html=1;rounded=1;swimlaneLine=1;sketch=1;curveFitting=1;jiggle=2;shadow=0;" parent="i_E2YTDbspMcnR8c5cFk-2" vertex="1">
          <mxGeometry width="30" height="30" as="geometry">
            <mxRectangle width="30" height="30" as="alternateBounds" />
          </mxGeometry>
        </mxCell>
        <mxCell id="i_E2YTDbspMcnR8c5cFk-4" value="&lt;font style=&quot;font-size: 14px;&quot;&gt;id&lt;/font&gt;" style="shape=partialRectangle;connectable=0;fillColor=none;top=0;left=0;bottom=0;right=0;align=left;spacingLeft=6;fontStyle=5;overflow=hidden;whiteSpace=wrap;html=1;rounded=1;swimlaneLine=1;sketch=1;curveFitting=1;jiggle=2;shadow=0;" parent="i_E2YTDbspMcnR8c5cFk-2" vertex="1">
          <mxGeometry x="30" width="150" height="30" as="geometry">
            <mxRectangle width="150" height="30" as="alternateBounds" />
          </mxGeometry>
        </mxCell>
        <mxCell id="i_E2YTDbspMcnR8c5cFk-5" value="" style="shape=tableRow;horizontal=0;startSize=0;swimlaneHead=0;swimlaneBody=0;fillColor=none;collapsible=0;dropTarget=0;points=[[0,0.5],[1,0.5]];portConstraint=eastwest;top=0;left=0;right=0;bottom=0;rounded=1;swimlaneLine=1;sketch=1;curveFitting=1;jiggle=2;shadow=0;" parent="i_E2YTDbspMcnR8c5cFk-1" vertex="1">
          <mxGeometry y="60" width="180" height="30" as="geometry" />
        </mxCell>
        <mxCell id="i_E2YTDbspMcnR8c5cFk-6" value="" style="shape=partialRectangle;connectable=0;fillColor=none;top=0;left=0;bottom=0;right=0;editable=1;overflow=hidden;whiteSpace=wrap;html=1;rounded=1;swimlaneLine=1;sketch=1;curveFitting=1;jiggle=2;shadow=0;" parent="i_E2YTDbspMcnR8c5cFk-5" vertex="1">
          <mxGeometry width="30" height="30" as="geometry">
            <mxRectangle width="30" height="30" as="alternateBounds" />
          </mxGeometry>
        </mxCell>
        <mxCell id="i_E2YTDbspMcnR8c5cFk-7" value="&lt;font style=&quot;font-size: 14px;&quot;&gt;music_id&amp;nbsp;&lt;/font&gt;&lt;span style=&quot;font-size: 14px;&quot;&gt;(FK)&lt;/span&gt;" style="shape=partialRectangle;connectable=0;fillColor=none;top=0;left=0;bottom=0;right=0;align=left;spacingLeft=6;overflow=hidden;whiteSpace=wrap;html=1;rounded=1;swimlaneLine=1;sketch=1;curveFitting=1;jiggle=2;shadow=0;" parent="i_E2YTDbspMcnR8c5cFk-5" vertex="1">
          <mxGeometry x="30" width="150" height="30" as="geometry">
            <mxRectangle width="150" height="30" as="alternateBounds" />
          </mxGeometry>
        </mxCell>
        <mxCell id="i_E2YTDbspMcnR8c5cFk-8" value="" style="shape=tableRow;horizontal=0;startSize=0;swimlaneHead=0;swimlaneBody=0;fillColor=none;collapsible=0;dropTarget=0;points=[[0,0.5],[1,0.5]];portConstraint=eastwest;top=0;left=0;right=0;bottom=0;rounded=1;swimlaneLine=1;sketch=1;curveFitting=1;jiggle=2;shadow=0;" parent="i_E2YTDbspMcnR8c5cFk-1" vertex="1">
          <mxGeometry y="90" width="180" height="30" as="geometry" />
        </mxCell>
        <mxCell id="i_E2YTDbspMcnR8c5cFk-9" value="" style="shape=partialRectangle;connectable=0;fillColor=none;top=0;left=0;bottom=0;right=0;editable=1;overflow=hidden;whiteSpace=wrap;html=1;rounded=1;swimlaneLine=1;sketch=1;curveFitting=1;jiggle=2;shadow=0;" parent="i_E2YTDbspMcnR8c5cFk-8" vertex="1">
          <mxGeometry width="30" height="30" as="geometry">
            <mxRectangle width="30" height="30" as="alternateBounds" />
          </mxGeometry>
        </mxCell>
        <mxCell id="i_E2YTDbspMcnR8c5cFk-10" value="&lt;font style=&quot;font-size: 14px;&quot;&gt;user_id&amp;nbsp;&lt;/font&gt;&lt;span style=&quot;font-size: 14px;&quot;&gt;(FK)&lt;/span&gt;" style="shape=partialRectangle;connectable=0;fillColor=none;top=0;left=0;bottom=0;right=0;align=left;spacingLeft=6;overflow=hidden;whiteSpace=wrap;html=1;rounded=1;swimlaneLine=1;sketch=1;curveFitting=1;jiggle=2;shadow=0;" parent="i_E2YTDbspMcnR8c5cFk-8" vertex="1">
          <mxGeometry x="30" width="150" height="30" as="geometry">
            <mxRectangle width="150" height="30" as="alternateBounds" />
          </mxGeometry>
        </mxCell>
        <mxCell id="i_E2YTDbspMcnR8c5cFk-14" value="&lt;div style=&quot;font-family: Consolas, &amp;quot;Courier New&amp;quot;, monospace; font-size: 14px; line-height: 19px; white-space-collapse: preserve;&quot;&gt;&lt;font style=&quot;&quot; color=&quot;#000000&quot;&gt;playlistlikes&lt;/font&gt;&lt;/div&gt;" style="shape=table;startSize=30;container=1;collapsible=1;childLayout=tableLayout;fixedRows=1;rowLines=0;fontStyle=1;align=center;resizeLast=1;html=1;fillColor=#008a00;fontColor=#ffffff;strokeColor=#005700;swimlaneLine=1;sketch=1;curveFitting=1;jiggle=2;shadow=0;rounded=1;" parent="1" vertex="1">
          <mxGeometry x="720" y="960" width="180" height="120" as="geometry" />
        </mxCell>
        <mxCell id="i_E2YTDbspMcnR8c5cFk-15" value="" style="shape=tableRow;horizontal=0;startSize=0;swimlaneHead=0;swimlaneBody=0;fillColor=none;collapsible=0;dropTarget=0;points=[[0,0.5],[1,0.5]];portConstraint=eastwest;top=0;left=0;right=0;bottom=1;swimlaneLine=1;sketch=1;curveFitting=1;jiggle=2;shadow=0;" parent="i_E2YTDbspMcnR8c5cFk-14" vertex="1">
          <mxGeometry y="30" width="180" height="30" as="geometry" />
        </mxCell>
        <mxCell id="i_E2YTDbspMcnR8c5cFk-16" value="PK" style="shape=partialRectangle;connectable=0;fillColor=none;top=0;left=0;bottom=0;right=0;fontStyle=1;overflow=hidden;whiteSpace=wrap;html=1;swimlaneLine=1;sketch=1;curveFitting=1;jiggle=2;shadow=0;" parent="i_E2YTDbspMcnR8c5cFk-15" vertex="1">
          <mxGeometry width="30" height="30" as="geometry">
            <mxRectangle width="30" height="30" as="alternateBounds" />
          </mxGeometry>
        </mxCell>
        <mxCell id="i_E2YTDbspMcnR8c5cFk-17" value="&lt;font style=&quot;font-size: 14px;&quot;&gt;id&lt;/font&gt;" style="shape=partialRectangle;connectable=0;fillColor=none;top=0;left=0;bottom=0;right=0;align=left;spacingLeft=6;fontStyle=5;overflow=hidden;whiteSpace=wrap;html=1;swimlaneLine=1;sketch=1;curveFitting=1;jiggle=2;shadow=0;" parent="i_E2YTDbspMcnR8c5cFk-15" vertex="1">
          <mxGeometry x="30" width="150" height="30" as="geometry">
            <mxRectangle width="150" height="30" as="alternateBounds" />
          </mxGeometry>
        </mxCell>
        <mxCell id="i_E2YTDbspMcnR8c5cFk-18" value="" style="shape=tableRow;horizontal=0;startSize=0;swimlaneHead=0;swimlaneBody=0;fillColor=none;collapsible=0;dropTarget=0;points=[[0,0.5],[1,0.5]];portConstraint=eastwest;top=0;left=0;right=0;bottom=0;swimlaneLine=1;sketch=1;curveFitting=1;jiggle=2;shadow=0;" parent="i_E2YTDbspMcnR8c5cFk-14" vertex="1">
          <mxGeometry y="60" width="180" height="30" as="geometry" />
        </mxCell>
        <mxCell id="i_E2YTDbspMcnR8c5cFk-19" value="" style="shape=partialRectangle;connectable=0;fillColor=none;top=0;left=0;bottom=0;right=0;editable=1;overflow=hidden;whiteSpace=wrap;html=1;swimlaneLine=1;sketch=1;curveFitting=1;jiggle=2;shadow=0;" parent="i_E2YTDbspMcnR8c5cFk-18" vertex="1">
          <mxGeometry width="30" height="30" as="geometry">
            <mxRectangle width="30" height="30" as="alternateBounds" />
          </mxGeometry>
        </mxCell>
        <mxCell id="i_E2YTDbspMcnR8c5cFk-20" value="&lt;font style=&quot;font-size: 14px;&quot;&gt;playlist_id&amp;nbsp;&lt;/font&gt;&lt;span style=&quot;font-size: 14px;&quot;&gt;(FK)&lt;/span&gt;" style="shape=partialRectangle;connectable=0;fillColor=none;top=0;left=0;bottom=0;right=0;align=left;spacingLeft=6;overflow=hidden;whiteSpace=wrap;html=1;swimlaneLine=1;sketch=1;curveFitting=1;jiggle=2;shadow=0;" parent="i_E2YTDbspMcnR8c5cFk-18" vertex="1">
          <mxGeometry x="30" width="150" height="30" as="geometry">
            <mxRectangle width="150" height="30" as="alternateBounds" />
          </mxGeometry>
        </mxCell>
        <mxCell id="i_E2YTDbspMcnR8c5cFk-21" value="" style="shape=tableRow;horizontal=0;startSize=0;swimlaneHead=0;swimlaneBody=0;fillColor=none;collapsible=0;dropTarget=0;points=[[0,0.5],[1,0.5]];portConstraint=eastwest;top=0;left=0;right=0;bottom=0;swimlaneLine=1;sketch=1;curveFitting=1;jiggle=2;shadow=0;" parent="i_E2YTDbspMcnR8c5cFk-14" vertex="1">
          <mxGeometry y="90" width="180" height="30" as="geometry" />
        </mxCell>
        <mxCell id="i_E2YTDbspMcnR8c5cFk-22" value="" style="shape=partialRectangle;connectable=0;fillColor=none;top=0;left=0;bottom=0;right=0;editable=1;overflow=hidden;whiteSpace=wrap;html=1;swimlaneLine=1;sketch=1;curveFitting=1;jiggle=2;shadow=0;" parent="i_E2YTDbspMcnR8c5cFk-21" vertex="1">
          <mxGeometry width="30" height="30" as="geometry">
            <mxRectangle width="30" height="30" as="alternateBounds" />
          </mxGeometry>
        </mxCell>
        <mxCell id="i_E2YTDbspMcnR8c5cFk-23" value="&lt;font style=&quot;font-size: 14px;&quot;&gt;user_id&amp;nbsp;&lt;/font&gt;&lt;span style=&quot;font-size: 14px;&quot;&gt;(FK)&lt;/span&gt;" style="shape=partialRectangle;connectable=0;fillColor=none;top=0;left=0;bottom=0;right=0;align=left;spacingLeft=6;overflow=hidden;whiteSpace=wrap;html=1;swimlaneLine=1;sketch=1;curveFitting=1;jiggle=2;shadow=0;" parent="i_E2YTDbspMcnR8c5cFk-21" vertex="1">
          <mxGeometry x="30" width="150" height="30" as="geometry">
            <mxRectangle width="150" height="30" as="alternateBounds" />
          </mxGeometry>
        </mxCell>
        <mxCell id="i_E2YTDbspMcnR8c5cFk-27" value="&lt;div style=&quot;font-family: Consolas, &amp;quot;Courier New&amp;quot;, monospace; line-height: 19px; white-space-collapse: preserve;&quot;&gt;&lt;font style=&quot;font-size: 16px;&quot; color=&quot;#000000&quot;&gt;albums&lt;/font&gt;&lt;/div&gt;" style="shape=table;startSize=30;container=1;collapsible=1;childLayout=tableLayout;fixedRows=1;rowLines=0;fontStyle=1;align=center;resizeLast=1;html=1;fillColor=#008a00;fontColor=#ffffff;strokeColor=#005700;rounded=1;swimlaneLine=1;sketch=1;curveFitting=1;jiggle=2;shadow=0;" parent="1" vertex="1">
          <mxGeometry x="781" y="40" width="180" height="120" as="geometry" />
        </mxCell>
        <mxCell id="i_E2YTDbspMcnR8c5cFk-28" value="" style="shape=tableRow;horizontal=0;startSize=0;swimlaneHead=0;swimlaneBody=0;fillColor=none;collapsible=0;dropTarget=0;points=[[0,0.5],[1,0.5]];portConstraint=eastwest;top=0;left=0;right=0;bottom=1;swimlaneLine=1;sketch=1;curveFitting=1;jiggle=2;shadow=0;" parent="i_E2YTDbspMcnR8c5cFk-27" vertex="1">
          <mxGeometry y="30" width="180" height="30" as="geometry" />
        </mxCell>
        <mxCell id="i_E2YTDbspMcnR8c5cFk-29" value="PK" style="shape=partialRectangle;connectable=0;fillColor=none;top=0;left=0;bottom=0;right=0;fontStyle=1;overflow=hidden;whiteSpace=wrap;html=1;swimlaneLine=1;sketch=1;curveFitting=1;jiggle=2;shadow=0;" parent="i_E2YTDbspMcnR8c5cFk-28" vertex="1">
          <mxGeometry width="30" height="30" as="geometry">
            <mxRectangle width="30" height="30" as="alternateBounds" />
          </mxGeometry>
        </mxCell>
        <mxCell id="i_E2YTDbspMcnR8c5cFk-30" value="&lt;font style=&quot;font-size: 14px;&quot;&gt;id&lt;/font&gt;" style="shape=partialRectangle;connectable=0;fillColor=none;top=0;left=0;bottom=0;right=0;align=left;spacingLeft=6;fontStyle=5;overflow=hidden;whiteSpace=wrap;html=1;swimlaneLine=1;sketch=1;curveFitting=1;jiggle=2;shadow=0;" parent="i_E2YTDbspMcnR8c5cFk-28" vertex="1">
          <mxGeometry x="30" width="150" height="30" as="geometry">
            <mxRectangle width="150" height="30" as="alternateBounds" />
          </mxGeometry>
        </mxCell>
        <mxCell id="i_E2YTDbspMcnR8c5cFk-31" value="" style="shape=tableRow;horizontal=0;startSize=0;swimlaneHead=0;swimlaneBody=0;fillColor=none;collapsible=0;dropTarget=0;points=[[0,0.5],[1,0.5]];portConstraint=eastwest;top=0;left=0;right=0;bottom=0;swimlaneLine=1;sketch=1;curveFitting=1;jiggle=2;shadow=0;" parent="i_E2YTDbspMcnR8c5cFk-27" vertex="1">
          <mxGeometry y="60" width="180" height="30" as="geometry" />
        </mxCell>
        <mxCell id="i_E2YTDbspMcnR8c5cFk-32" value="" style="shape=partialRectangle;connectable=0;fillColor=none;top=0;left=0;bottom=0;right=0;editable=1;overflow=hidden;whiteSpace=wrap;html=1;swimlaneLine=1;sketch=1;curveFitting=1;jiggle=2;shadow=0;" parent="i_E2YTDbspMcnR8c5cFk-31" vertex="1">
          <mxGeometry width="30" height="30" as="geometry">
            <mxRectangle width="30" height="30" as="alternateBounds" />
          </mxGeometry>
        </mxCell>
        <mxCell id="i_E2YTDbspMcnR8c5cFk-33" value="&lt;div style=&quot;font-family: Consolas, &amp;quot;Courier New&amp;quot;, monospace; font-size: 14px; line-height: 19px; white-space: pre;&quot;&gt;singer_id (FK)&lt;/div&gt;" style="shape=partialRectangle;connectable=0;fillColor=none;top=0;left=0;bottom=0;right=0;align=left;spacingLeft=6;overflow=hidden;whiteSpace=wrap;html=1;swimlaneLine=1;sketch=1;curveFitting=1;jiggle=2;shadow=0;" parent="i_E2YTDbspMcnR8c5cFk-31" vertex="1">
          <mxGeometry x="30" width="150" height="30" as="geometry">
            <mxRectangle width="150" height="30" as="alternateBounds" />
          </mxGeometry>
        </mxCell>
        <mxCell id="i_E2YTDbspMcnR8c5cFk-34" value="" style="shape=tableRow;horizontal=0;startSize=0;swimlaneHead=0;swimlaneBody=0;fillColor=none;collapsible=0;dropTarget=0;points=[[0,0.5],[1,0.5]];portConstraint=eastwest;top=0;left=0;right=0;bottom=0;swimlaneLine=1;sketch=1;curveFitting=1;jiggle=2;shadow=0;" parent="i_E2YTDbspMcnR8c5cFk-27" vertex="1">
          <mxGeometry y="90" width="180" height="30" as="geometry" />
        </mxCell>
        <mxCell id="i_E2YTDbspMcnR8c5cFk-35" value="" style="shape=partialRectangle;connectable=0;fillColor=none;top=0;left=0;bottom=0;right=0;editable=1;overflow=hidden;whiteSpace=wrap;html=1;swimlaneLine=1;sketch=1;curveFitting=1;jiggle=2;shadow=0;" parent="i_E2YTDbspMcnR8c5cFk-34" vertex="1">
          <mxGeometry width="30" height="30" as="geometry">
            <mxRectangle width="30" height="30" as="alternateBounds" />
          </mxGeometry>
        </mxCell>
        <mxCell id="i_E2YTDbspMcnR8c5cFk-36" value="&lt;font style=&quot;font-size: 14px;&quot;&gt;name&lt;/font&gt;" style="shape=partialRectangle;connectable=0;fillColor=none;top=0;left=0;bottom=0;right=0;align=left;spacingLeft=6;overflow=hidden;whiteSpace=wrap;html=1;swimlaneLine=1;sketch=1;curveFitting=1;jiggle=2;shadow=0;" parent="i_E2YTDbspMcnR8c5cFk-34" vertex="1">
          <mxGeometry x="30" width="150" height="30" as="geometry">
            <mxRectangle width="150" height="30" as="alternateBounds" />
          </mxGeometry>
        </mxCell>
        <mxCell id="i_E2YTDbspMcnR8c5cFk-40" value="&lt;div style=&quot;font-family: Consolas, &amp;quot;Courier New&amp;quot;, monospace; line-height: 19px; white-space-collapse: preserve;&quot;&gt;&lt;font color=&quot;#000000&quot; style=&quot;font-size: 16px;&quot;&gt;concerts&lt;/font&gt;&lt;/div&gt;" style="shape=table;startSize=30;container=1;collapsible=1;childLayout=tableLayout;fixedRows=1;rowLines=0;fontStyle=1;align=center;resizeLast=1;html=1;fillColor=#008a00;fontColor=#ffffff;strokeColor=#005700;rounded=1;swimlaneLine=1;sketch=1;curveFitting=1;jiggle=2;shadow=0;" parent="1" vertex="1">
          <mxGeometry x="80" y="240" width="180" height="180" as="geometry" />
        </mxCell>
        <mxCell id="i_E2YTDbspMcnR8c5cFk-41" value="" style="shape=tableRow;horizontal=0;startSize=0;swimlaneHead=0;swimlaneBody=0;fillColor=none;collapsible=0;dropTarget=0;points=[[0,0.5],[1,0.5]];portConstraint=eastwest;top=0;left=0;right=0;bottom=1;swimlaneLine=1;sketch=1;curveFitting=1;jiggle=2;shadow=0;" parent="i_E2YTDbspMcnR8c5cFk-40" vertex="1">
          <mxGeometry y="30" width="180" height="30" as="geometry" />
        </mxCell>
        <mxCell id="i_E2YTDbspMcnR8c5cFk-42" value="PK" style="shape=partialRectangle;connectable=0;fillColor=none;top=0;left=0;bottom=0;right=0;fontStyle=1;overflow=hidden;whiteSpace=wrap;html=1;swimlaneLine=1;sketch=1;curveFitting=1;jiggle=2;shadow=0;" parent="i_E2YTDbspMcnR8c5cFk-41" vertex="1">
          <mxGeometry width="30" height="30" as="geometry">
            <mxRectangle width="30" height="30" as="alternateBounds" />
          </mxGeometry>
        </mxCell>
        <mxCell id="i_E2YTDbspMcnR8c5cFk-43" value="&lt;font style=&quot;font-size: 14px;&quot;&gt;id&lt;/font&gt;" style="shape=partialRectangle;connectable=0;fillColor=none;top=0;left=0;bottom=0;right=0;align=left;spacingLeft=6;fontStyle=5;overflow=hidden;whiteSpace=wrap;html=1;swimlaneLine=1;sketch=1;curveFitting=1;jiggle=2;shadow=0;" parent="i_E2YTDbspMcnR8c5cFk-41" vertex="1">
          <mxGeometry x="30" width="150" height="30" as="geometry">
            <mxRectangle width="150" height="30" as="alternateBounds" />
          </mxGeometry>
        </mxCell>
        <mxCell id="i_E2YTDbspMcnR8c5cFk-44" value="" style="shape=tableRow;horizontal=0;startSize=0;swimlaneHead=0;swimlaneBody=0;fillColor=none;collapsible=0;dropTarget=0;points=[[0,0.5],[1,0.5]];portConstraint=eastwest;top=0;left=0;right=0;bottom=0;swimlaneLine=1;sketch=1;curveFitting=1;jiggle=2;shadow=0;" parent="i_E2YTDbspMcnR8c5cFk-40" vertex="1">
          <mxGeometry y="60" width="180" height="30" as="geometry" />
        </mxCell>
        <mxCell id="i_E2YTDbspMcnR8c5cFk-45" value="" style="shape=partialRectangle;connectable=0;fillColor=none;top=0;left=0;bottom=0;right=0;editable=1;overflow=hidden;whiteSpace=wrap;html=1;swimlaneLine=1;sketch=1;curveFitting=1;jiggle=2;shadow=0;" parent="i_E2YTDbspMcnR8c5cFk-44" vertex="1">
          <mxGeometry width="30" height="30" as="geometry">
            <mxRectangle width="30" height="30" as="alternateBounds" />
          </mxGeometry>
        </mxCell>
        <mxCell id="i_E2YTDbspMcnR8c5cFk-46" value="&lt;div style=&quot;font-family: Consolas, &amp;quot;Courier New&amp;quot;, monospace; font-size: 14px; line-height: 19px; white-space: pre;&quot;&gt;singer_id (FK)&lt;/div&gt;" style="shape=partialRectangle;connectable=0;fillColor=none;top=0;left=0;bottom=0;right=0;align=left;spacingLeft=6;overflow=hidden;whiteSpace=wrap;html=1;swimlaneLine=1;sketch=1;curveFitting=1;jiggle=2;shadow=0;" parent="i_E2YTDbspMcnR8c5cFk-44" vertex="1">
          <mxGeometry x="30" width="150" height="30" as="geometry">
            <mxRectangle width="150" height="30" as="alternateBounds" />
          </mxGeometry>
        </mxCell>
        <mxCell id="i_E2YTDbspMcnR8c5cFk-47" value="" style="shape=tableRow;horizontal=0;startSize=0;swimlaneHead=0;swimlaneBody=0;fillColor=none;collapsible=0;dropTarget=0;points=[[0,0.5],[1,0.5]];portConstraint=eastwest;top=0;left=0;right=0;bottom=0;swimlaneLine=1;sketch=1;curveFitting=1;jiggle=2;shadow=0;" parent="i_E2YTDbspMcnR8c5cFk-40" vertex="1">
          <mxGeometry y="90" width="180" height="30" as="geometry" />
        </mxCell>
        <mxCell id="i_E2YTDbspMcnR8c5cFk-48" value="" style="shape=partialRectangle;connectable=0;fillColor=none;top=0;left=0;bottom=0;right=0;editable=1;overflow=hidden;whiteSpace=wrap;html=1;swimlaneLine=1;sketch=1;curveFitting=1;jiggle=2;shadow=0;" parent="i_E2YTDbspMcnR8c5cFk-47" vertex="1">
          <mxGeometry width="30" height="30" as="geometry">
            <mxRectangle width="30" height="30" as="alternateBounds" />
          </mxGeometry>
        </mxCell>
        <mxCell id="i_E2YTDbspMcnR8c5cFk-49" value="&lt;div style=&quot;font-family: Consolas, &amp;quot;Courier New&amp;quot;, monospace; font-size: 14px; line-height: 19px; white-space: pre;&quot;&gt;price&lt;/div&gt;" style="shape=partialRectangle;connectable=0;fillColor=none;top=0;left=0;bottom=0;right=0;align=left;spacingLeft=6;overflow=hidden;whiteSpace=wrap;html=1;swimlaneLine=1;sketch=1;curveFitting=1;jiggle=2;shadow=0;" parent="i_E2YTDbspMcnR8c5cFk-47" vertex="1">
          <mxGeometry x="30" width="150" height="30" as="geometry">
            <mxRectangle width="150" height="30" as="alternateBounds" />
          </mxGeometry>
        </mxCell>
        <mxCell id="i_E2YTDbspMcnR8c5cFk-50" value="" style="shape=tableRow;horizontal=0;startSize=0;swimlaneHead=0;swimlaneBody=0;fillColor=none;collapsible=0;dropTarget=0;points=[[0,0.5],[1,0.5]];portConstraint=eastwest;top=0;left=0;right=0;bottom=0;swimlaneLine=1;sketch=1;curveFitting=1;jiggle=2;shadow=0;" parent="i_E2YTDbspMcnR8c5cFk-40" vertex="1">
          <mxGeometry y="120" width="180" height="30" as="geometry" />
        </mxCell>
        <mxCell id="i_E2YTDbspMcnR8c5cFk-51" value="" style="shape=partialRectangle;connectable=0;fillColor=none;top=0;left=0;bottom=0;right=0;editable=1;overflow=hidden;whiteSpace=wrap;html=1;swimlaneLine=1;sketch=1;curveFitting=1;jiggle=2;shadow=0;" parent="i_E2YTDbspMcnR8c5cFk-50" vertex="1">
          <mxGeometry width="30" height="30" as="geometry">
            <mxRectangle width="30" height="30" as="alternateBounds" />
          </mxGeometry>
        </mxCell>
        <mxCell id="i_E2YTDbspMcnR8c5cFk-52" value="&lt;font style=&quot;font-size: 14px;&quot;&gt;date&lt;/font&gt;" style="shape=partialRectangle;connectable=0;fillColor=none;top=0;left=0;bottom=0;right=0;align=left;spacingLeft=6;overflow=hidden;whiteSpace=wrap;html=1;swimlaneLine=1;sketch=1;curveFitting=1;jiggle=2;shadow=0;" parent="i_E2YTDbspMcnR8c5cFk-50" vertex="1">
          <mxGeometry x="30" width="150" height="30" as="geometry">
            <mxRectangle width="150" height="30" as="alternateBounds" />
          </mxGeometry>
        </mxCell>
        <mxCell id="i_E2YTDbspMcnR8c5cFk-55" value="" style="shape=tableRow;horizontal=0;startSize=0;swimlaneHead=0;swimlaneBody=0;fillColor=none;collapsible=0;dropTarget=0;points=[[0,0.5],[1,0.5]];portConstraint=eastwest;top=0;left=0;right=0;bottom=0;swimlaneLine=1;sketch=1;curveFitting=1;jiggle=2;shadow=0;" parent="i_E2YTDbspMcnR8c5cFk-40" vertex="1">
          <mxGeometry y="150" width="180" height="30" as="geometry" />
        </mxCell>
        <mxCell id="i_E2YTDbspMcnR8c5cFk-56" value="" style="shape=partialRectangle;connectable=0;fillColor=none;top=0;left=0;bottom=0;right=0;editable=1;overflow=hidden;whiteSpace=wrap;html=1;swimlaneLine=1;sketch=1;curveFitting=1;jiggle=2;shadow=0;" parent="i_E2YTDbspMcnR8c5cFk-55" vertex="1">
          <mxGeometry width="30" height="30" as="geometry">
            <mxRectangle width="30" height="30" as="alternateBounds" />
          </mxGeometry>
        </mxCell>
        <mxCell id="i_E2YTDbspMcnR8c5cFk-57" value="&lt;div style=&quot;font-family: Consolas, &amp;quot;Courier New&amp;quot;, monospace; font-size: 14px; line-height: 19px; white-space: pre;&quot;&gt;has_suspended&lt;/div&gt;" style="shape=partialRectangle;connectable=0;fillColor=none;top=0;left=0;bottom=0;right=0;align=left;spacingLeft=6;overflow=hidden;whiteSpace=wrap;html=1;swimlaneLine=1;sketch=1;curveFitting=1;jiggle=2;shadow=0;" parent="i_E2YTDbspMcnR8c5cFk-55" vertex="1">
          <mxGeometry x="30" width="150" height="30" as="geometry">
            <mxRectangle width="150" height="30" as="alternateBounds" />
          </mxGeometry>
        </mxCell>
        <mxCell id="i_E2YTDbspMcnR8c5cFk-58" value="&lt;div style=&quot;font-family: Consolas, &amp;quot;Courier New&amp;quot;, monospace; font-size: 14px; line-height: 19px; white-space-collapse: preserve;&quot;&gt;&lt;font style=&quot;&quot; color=&quot;#000000&quot;&gt;favoritemusics&lt;/font&gt;&lt;/div&gt;" style="shape=table;startSize=30;container=1;collapsible=1;childLayout=tableLayout;fixedRows=1;rowLines=0;fontStyle=1;align=center;resizeLast=1;html=1;fillColor=#008a00;fontColor=#ffffff;strokeColor=#005700;gradientColor=none;swimlaneFillColor=none;swimlaneLine=1;sketch=1;curveFitting=1;jiggle=2;shadow=0;rounded=1;" parent="1" vertex="1">
          <mxGeometry x="420" y="240" width="180" height="120" as="geometry" />
        </mxCell>
        <mxCell id="i_E2YTDbspMcnR8c5cFk-59" value="" style="shape=tableRow;horizontal=0;startSize=0;swimlaneHead=0;swimlaneBody=0;fillColor=none;collapsible=0;dropTarget=0;points=[[0,0.5],[1,0.5]];portConstraint=eastwest;top=0;left=0;right=0;bottom=1;swimlaneLine=1;sketch=1;curveFitting=1;jiggle=2;shadow=0;" parent="i_E2YTDbspMcnR8c5cFk-58" vertex="1">
          <mxGeometry y="30" width="180" height="30" as="geometry" />
        </mxCell>
        <mxCell id="i_E2YTDbspMcnR8c5cFk-60" value="PK" style="shape=partialRectangle;connectable=0;fillColor=none;top=0;left=0;bottom=0;right=0;fontStyle=1;overflow=hidden;whiteSpace=wrap;html=1;swimlaneLine=1;sketch=1;curveFitting=1;jiggle=2;shadow=0;" parent="i_E2YTDbspMcnR8c5cFk-59" vertex="1">
          <mxGeometry width="30" height="30" as="geometry">
            <mxRectangle width="30" height="30" as="alternateBounds" />
          </mxGeometry>
        </mxCell>
        <mxCell id="i_E2YTDbspMcnR8c5cFk-61" value="&lt;font style=&quot;font-size: 14px;&quot;&gt;id&lt;/font&gt;" style="shape=partialRectangle;connectable=0;fillColor=none;top=0;left=0;bottom=0;right=0;align=left;spacingLeft=6;fontStyle=5;overflow=hidden;whiteSpace=wrap;html=1;swimlaneLine=1;sketch=1;curveFitting=1;jiggle=2;shadow=0;" parent="i_E2YTDbspMcnR8c5cFk-59" vertex="1">
          <mxGeometry x="30" width="150" height="30" as="geometry">
            <mxRectangle width="150" height="30" as="alternateBounds" />
          </mxGeometry>
        </mxCell>
        <mxCell id="i_E2YTDbspMcnR8c5cFk-62" value="" style="shape=tableRow;horizontal=0;startSize=0;swimlaneHead=0;swimlaneBody=0;fillColor=none;collapsible=0;dropTarget=0;points=[[0,0.5],[1,0.5]];portConstraint=eastwest;top=0;left=0;right=0;bottom=0;swimlaneLine=1;sketch=1;curveFitting=1;jiggle=2;shadow=0;" parent="i_E2YTDbspMcnR8c5cFk-58" vertex="1">
          <mxGeometry y="60" width="180" height="30" as="geometry" />
        </mxCell>
        <mxCell id="i_E2YTDbspMcnR8c5cFk-63" value="" style="shape=partialRectangle;connectable=0;fillColor=none;top=0;left=0;bottom=0;right=0;editable=1;overflow=hidden;whiteSpace=wrap;html=1;swimlaneLine=1;sketch=1;curveFitting=1;jiggle=2;shadow=0;" parent="i_E2YTDbspMcnR8c5cFk-62" vertex="1">
          <mxGeometry width="30" height="30" as="geometry">
            <mxRectangle width="30" height="30" as="alternateBounds" />
          </mxGeometry>
        </mxCell>
        <mxCell id="i_E2YTDbspMcnR8c5cFk-64" value="&lt;font style=&quot;font-size: 14px;&quot;&gt;music_id&amp;nbsp;&lt;/font&gt;&lt;span style=&quot;font-size: 14px;&quot;&gt;(FK)&lt;/span&gt;" style="shape=partialRectangle;connectable=0;fillColor=none;top=0;left=0;bottom=0;right=0;align=left;spacingLeft=6;overflow=hidden;whiteSpace=wrap;html=1;swimlaneLine=1;sketch=1;curveFitting=1;jiggle=2;shadow=0;" parent="i_E2YTDbspMcnR8c5cFk-62" vertex="1">
          <mxGeometry x="30" width="150" height="30" as="geometry">
            <mxRectangle width="150" height="30" as="alternateBounds" />
          </mxGeometry>
        </mxCell>
        <mxCell id="i_E2YTDbspMcnR8c5cFk-65" value="" style="shape=tableRow;horizontal=0;startSize=0;swimlaneHead=0;swimlaneBody=0;fillColor=none;collapsible=0;dropTarget=0;points=[[0,0.5],[1,0.5]];portConstraint=eastwest;top=0;left=0;right=0;bottom=0;swimlaneLine=1;sketch=1;curveFitting=1;jiggle=2;shadow=0;" parent="i_E2YTDbspMcnR8c5cFk-58" vertex="1">
          <mxGeometry y="90" width="180" height="30" as="geometry" />
        </mxCell>
        <mxCell id="i_E2YTDbspMcnR8c5cFk-66" value="" style="shape=partialRectangle;connectable=0;fillColor=none;top=0;left=0;bottom=0;right=0;editable=1;overflow=hidden;whiteSpace=wrap;html=1;swimlaneLine=1;sketch=1;curveFitting=1;jiggle=2;shadow=0;" parent="i_E2YTDbspMcnR8c5cFk-65" vertex="1">
          <mxGeometry width="30" height="30" as="geometry">
            <mxRectangle width="30" height="30" as="alternateBounds" />
          </mxGeometry>
        </mxCell>
        <mxCell id="i_E2YTDbspMcnR8c5cFk-67" value="&lt;font style=&quot;font-size: 14px;&quot;&gt;user_id&amp;nbsp;&lt;/font&gt;&lt;span style=&quot;font-size: 14px;&quot;&gt;(FK)&lt;/span&gt;" style="shape=partialRectangle;connectable=0;fillColor=none;top=0;left=0;bottom=0;right=0;align=left;spacingLeft=6;overflow=hidden;whiteSpace=wrap;html=1;swimlaneLine=1;sketch=1;curveFitting=1;jiggle=2;shadow=0;" parent="i_E2YTDbspMcnR8c5cFk-65" vertex="1">
          <mxGeometry x="30" width="150" height="30" as="geometry">
            <mxRectangle width="150" height="30" as="alternateBounds" />
          </mxGeometry>
        </mxCell>
        <mxCell id="i_E2YTDbspMcnR8c5cFk-71" value="&lt;div style=&quot;font-family: Consolas, &amp;quot;Courier New&amp;quot;, monospace; font-size: 14px; line-height: 19px; white-space-collapse: preserve;&quot;&gt;&lt;font style=&quot;&quot; color=&quot;#000000&quot;&gt;favoriteplaylists&lt;/font&gt;&lt;/div&gt;" style="shape=table;startSize=30;container=1;collapsible=1;childLayout=tableLayout;fixedRows=1;rowLines=0;fontStyle=1;align=center;resizeLast=1;html=1;fillColor=#008a00;fontColor=#ffffff;strokeColor=#005700;swimlaneLine=1;sketch=1;curveFitting=1;jiggle=2;shadow=0;rounded=1;" parent="1" vertex="1">
          <mxGeometry x="780" y="240" width="180" height="120" as="geometry" />
        </mxCell>
        <mxCell id="i_E2YTDbspMcnR8c5cFk-72" value="" style="shape=tableRow;horizontal=0;startSize=0;swimlaneHead=0;swimlaneBody=0;fillColor=none;collapsible=0;dropTarget=0;points=[[0,0.5],[1,0.5]];portConstraint=eastwest;top=0;left=0;right=0;bottom=1;swimlaneLine=1;sketch=1;curveFitting=1;jiggle=2;shadow=0;" parent="i_E2YTDbspMcnR8c5cFk-71" vertex="1">
          <mxGeometry y="30" width="180" height="30" as="geometry" />
        </mxCell>
        <mxCell id="i_E2YTDbspMcnR8c5cFk-73" value="PK" style="shape=partialRectangle;connectable=0;fillColor=none;top=0;left=0;bottom=0;right=0;fontStyle=1;overflow=hidden;whiteSpace=wrap;html=1;swimlaneLine=1;sketch=1;curveFitting=1;jiggle=2;shadow=0;" parent="i_E2YTDbspMcnR8c5cFk-72" vertex="1">
          <mxGeometry width="30" height="30" as="geometry">
            <mxRectangle width="30" height="30" as="alternateBounds" />
          </mxGeometry>
        </mxCell>
        <mxCell id="i_E2YTDbspMcnR8c5cFk-74" value="&lt;font style=&quot;font-size: 14px;&quot;&gt;id&lt;/font&gt;" style="shape=partialRectangle;connectable=0;fillColor=none;top=0;left=0;bottom=0;right=0;align=left;spacingLeft=6;fontStyle=5;overflow=hidden;whiteSpace=wrap;html=1;swimlaneLine=1;sketch=1;curveFitting=1;jiggle=2;shadow=0;" parent="i_E2YTDbspMcnR8c5cFk-72" vertex="1">
          <mxGeometry x="30" width="150" height="30" as="geometry">
            <mxRectangle width="150" height="30" as="alternateBounds" />
          </mxGeometry>
        </mxCell>
        <mxCell id="i_E2YTDbspMcnR8c5cFk-75" value="" style="shape=tableRow;horizontal=0;startSize=0;swimlaneHead=0;swimlaneBody=0;fillColor=none;collapsible=0;dropTarget=0;points=[[0,0.5],[1,0.5]];portConstraint=eastwest;top=0;left=0;right=0;bottom=0;swimlaneLine=1;sketch=1;curveFitting=1;jiggle=2;shadow=0;" parent="i_E2YTDbspMcnR8c5cFk-71" vertex="1">
          <mxGeometry y="60" width="180" height="30" as="geometry" />
        </mxCell>
        <mxCell id="i_E2YTDbspMcnR8c5cFk-76" value="" style="shape=partialRectangle;connectable=0;fillColor=none;top=0;left=0;bottom=0;right=0;editable=1;overflow=hidden;whiteSpace=wrap;html=1;swimlaneLine=1;sketch=1;curveFitting=1;jiggle=2;shadow=0;" parent="i_E2YTDbspMcnR8c5cFk-75" vertex="1">
          <mxGeometry width="30" height="30" as="geometry">
            <mxRectangle width="30" height="30" as="alternateBounds" />
          </mxGeometry>
        </mxCell>
        <mxCell id="i_E2YTDbspMcnR8c5cFk-77" value="&lt;div style=&quot;font-family: Consolas, &amp;quot;Courier New&amp;quot;, monospace; font-size: 14px; line-height: 19px; white-space: pre;&quot;&gt;playlist_id &lt;span style=&quot;background-color: initial; font-family: Helvetica; white-space: normal;&quot;&gt;(FK)&lt;/span&gt;&lt;/div&gt;" style="shape=partialRectangle;connectable=0;fillColor=none;top=0;left=0;bottom=0;right=0;align=left;spacingLeft=6;overflow=hidden;whiteSpace=wrap;html=1;swimlaneLine=1;sketch=1;curveFitting=1;jiggle=2;shadow=0;" parent="i_E2YTDbspMcnR8c5cFk-75" vertex="1">
          <mxGeometry x="30" width="150" height="30" as="geometry">
            <mxRectangle width="150" height="30" as="alternateBounds" />
          </mxGeometry>
        </mxCell>
        <mxCell id="i_E2YTDbspMcnR8c5cFk-78" value="" style="shape=tableRow;horizontal=0;startSize=0;swimlaneHead=0;swimlaneBody=0;fillColor=none;collapsible=0;dropTarget=0;points=[[0,0.5],[1,0.5]];portConstraint=eastwest;top=0;left=0;right=0;bottom=0;swimlaneLine=1;sketch=1;curveFitting=1;jiggle=2;shadow=0;" parent="i_E2YTDbspMcnR8c5cFk-71" vertex="1">
          <mxGeometry y="90" width="180" height="30" as="geometry" />
        </mxCell>
        <mxCell id="i_E2YTDbspMcnR8c5cFk-79" value="" style="shape=partialRectangle;connectable=0;fillColor=none;top=0;left=0;bottom=0;right=0;editable=1;overflow=hidden;whiteSpace=wrap;html=1;swimlaneLine=1;sketch=1;curveFitting=1;jiggle=2;shadow=0;" parent="i_E2YTDbspMcnR8c5cFk-78" vertex="1">
          <mxGeometry width="30" height="30" as="geometry">
            <mxRectangle width="30" height="30" as="alternateBounds" />
          </mxGeometry>
        </mxCell>
        <mxCell id="i_E2YTDbspMcnR8c5cFk-80" value="&lt;font style=&quot;font-size: 14px;&quot;&gt;user_id&amp;nbsp;&lt;/font&gt;&lt;span style=&quot;font-size: 14px;&quot;&gt;(FK)&lt;/span&gt;" style="shape=partialRectangle;connectable=0;fillColor=none;top=0;left=0;bottom=0;right=0;align=left;spacingLeft=6;overflow=hidden;whiteSpace=wrap;html=1;swimlaneLine=1;sketch=1;curveFitting=1;jiggle=2;shadow=0;" parent="i_E2YTDbspMcnR8c5cFk-78" vertex="1">
          <mxGeometry x="30" width="150" height="30" as="geometry">
            <mxRectangle width="150" height="30" as="alternateBounds" />
          </mxGeometry>
        </mxCell>
        <mxCell id="i_E2YTDbspMcnR8c5cFk-84" value="&lt;div style=&quot;font-family: Consolas, &amp;quot;Courier New&amp;quot;, monospace; font-size: 14px; line-height: 19px; white-space-collapse: preserve;&quot;&gt;&lt;font style=&quot;&quot; color=&quot;#000000&quot;&gt;followers&lt;/font&gt;&lt;/div&gt;" style="shape=table;startSize=30;container=1;collapsible=1;childLayout=tableLayout;fixedRows=1;rowLines=0;fontStyle=1;align=center;resizeLast=1;html=1;fillColor=#008a00;fontColor=#ffffff;strokeColor=#005700;swimlaneLine=1;sketch=1;curveFitting=1;jiggle=2;shadow=0;rounded=1;" parent="1" vertex="1">
          <mxGeometry x="80" y="480" width="180" height="90" as="geometry" />
        </mxCell>
        <mxCell id="i_E2YTDbspMcnR8c5cFk-85" value="" style="shape=tableRow;horizontal=0;startSize=0;swimlaneHead=0;swimlaneBody=0;fillColor=none;collapsible=0;dropTarget=0;points=[[0,0.5],[1,0.5]];portConstraint=eastwest;top=0;left=0;right=0;bottom=1;swimlaneLine=1;sketch=1;curveFitting=1;jiggle=2;shadow=0;" parent="i_E2YTDbspMcnR8c5cFk-84" vertex="1">
          <mxGeometry y="30" width="180" height="30" as="geometry" />
        </mxCell>
        <mxCell id="i_E2YTDbspMcnR8c5cFk-86" value="PK" style="shape=partialRectangle;connectable=0;fillColor=none;top=0;left=0;bottom=0;right=0;fontStyle=1;overflow=hidden;whiteSpace=wrap;html=1;swimlaneLine=1;sketch=1;curveFitting=1;jiggle=2;shadow=0;" parent="i_E2YTDbspMcnR8c5cFk-85" vertex="1">
          <mxGeometry width="30" height="30" as="geometry">
            <mxRectangle width="30" height="30" as="alternateBounds" />
          </mxGeometry>
        </mxCell>
        <mxCell id="i_E2YTDbspMcnR8c5cFk-87" value="&lt;span style=&quot;font-family: Consolas, &amp;quot;Courier New&amp;quot;, monospace; font-size: 14px; white-space: pre;&quot;&gt;follower_id (FK)&lt;/span&gt;" style="shape=partialRectangle;connectable=0;fillColor=none;top=0;left=0;bottom=0;right=0;align=left;spacingLeft=6;fontStyle=5;overflow=hidden;whiteSpace=wrap;html=1;swimlaneLine=1;sketch=1;curveFitting=1;jiggle=2;shadow=0;" parent="i_E2YTDbspMcnR8c5cFk-85" vertex="1">
          <mxGeometry x="30" width="150" height="30" as="geometry">
            <mxRectangle width="150" height="30" as="alternateBounds" />
          </mxGeometry>
        </mxCell>
        <mxCell id="ane9JGgsB1Fdvep3CO5S-14" value="" style="shape=tableRow;horizontal=0;startSize=0;swimlaneHead=0;swimlaneBody=0;fillColor=none;collapsible=0;dropTarget=0;points=[[0,0.5],[1,0.5]];portConstraint=eastwest;top=0;left=0;right=0;bottom=1;swimlaneLine=1;sketch=1;curveFitting=1;jiggle=2;shadow=0;" parent="i_E2YTDbspMcnR8c5cFk-84" vertex="1">
          <mxGeometry y="60" width="180" height="30" as="geometry" />
        </mxCell>
        <mxCell id="ane9JGgsB1Fdvep3CO5S-15" value="PK" style="shape=partialRectangle;connectable=0;fillColor=none;top=0;left=0;bottom=0;right=0;fontStyle=1;overflow=hidden;whiteSpace=wrap;html=1;swimlaneLine=1;sketch=1;curveFitting=1;jiggle=2;shadow=0;" parent="ane9JGgsB1Fdvep3CO5S-14" vertex="1">
          <mxGeometry width="30" height="30" as="geometry">
            <mxRectangle width="30" height="30" as="alternateBounds" />
          </mxGeometry>
        </mxCell>
        <mxCell id="ane9JGgsB1Fdvep3CO5S-16" value="&lt;span style=&quot;font-family: Consolas, &amp;quot;Courier New&amp;quot;, monospace; font-size: 14px; white-space: pre;&quot;&gt;user_id (FK)&lt;/span&gt;" style="shape=partialRectangle;connectable=0;fillColor=none;top=0;left=0;bottom=0;right=0;align=left;spacingLeft=6;fontStyle=5;overflow=hidden;whiteSpace=wrap;html=1;swimlaneLine=1;sketch=1;curveFitting=1;jiggle=2;shadow=0;" parent="ane9JGgsB1Fdvep3CO5S-14" vertex="1">
          <mxGeometry x="30" width="150" height="30" as="geometry">
            <mxRectangle width="150" height="30" as="alternateBounds" />
          </mxGeometry>
        </mxCell>
        <mxCell id="i_E2YTDbspMcnR8c5cFk-97" value="&lt;div style=&quot;font-family: Consolas, &amp;quot;Courier New&amp;quot;, monospace; font-size: 14px; line-height: 19px; white-space-collapse: preserve;&quot;&gt;&lt;font style=&quot;&quot; color=&quot;#000000&quot;&gt;friendrequests&lt;/font&gt;&lt;/div&gt;" style="shape=table;startSize=30;container=1;collapsible=1;childLayout=tableLayout;fixedRows=1;rowLines=0;fontStyle=1;align=center;resizeLast=1;html=1;fillColor=#008a00;fontColor=#ffffff;strokeColor=#005700;swimlaneLine=1;sketch=1;curveFitting=1;jiggle=2;shadow=0;rounded=1;" parent="1" vertex="1">
          <mxGeometry x="400" y="480" width="180" height="120" as="geometry" />
        </mxCell>
        <mxCell id="i_E2YTDbspMcnR8c5cFk-98" value="" style="shape=tableRow;horizontal=0;startSize=0;swimlaneHead=0;swimlaneBody=0;fillColor=none;collapsible=0;dropTarget=0;points=[[0,0.5],[1,0.5]];portConstraint=eastwest;top=0;left=0;right=0;bottom=1;swimlaneLine=1;sketch=1;curveFitting=1;jiggle=2;shadow=0;" parent="i_E2YTDbspMcnR8c5cFk-97" vertex="1">
          <mxGeometry y="30" width="180" height="30" as="geometry" />
        </mxCell>
        <mxCell id="i_E2YTDbspMcnR8c5cFk-99" value="PK" style="shape=partialRectangle;connectable=0;fillColor=none;top=0;left=0;bottom=0;right=0;fontStyle=1;overflow=hidden;whiteSpace=wrap;html=1;swimlaneLine=1;sketch=1;curveFitting=1;jiggle=2;shadow=0;" parent="i_E2YTDbspMcnR8c5cFk-98" vertex="1">
          <mxGeometry width="30" height="30" as="geometry">
            <mxRectangle width="30" height="30" as="alternateBounds" />
          </mxGeometry>
        </mxCell>
        <mxCell id="i_E2YTDbspMcnR8c5cFk-100" value="&lt;span style=&quot;font-family: Consolas, &amp;quot;Courier New&amp;quot;, monospace; font-size: 14px; white-space: pre;&quot;&gt;reciever_id (FK)&lt;/span&gt;" style="shape=partialRectangle;connectable=0;fillColor=none;top=0;left=0;bottom=0;right=0;align=left;spacingLeft=6;fontStyle=5;overflow=hidden;whiteSpace=wrap;html=1;swimlaneLine=1;sketch=1;curveFitting=1;jiggle=2;shadow=0;" parent="i_E2YTDbspMcnR8c5cFk-98" vertex="1">
          <mxGeometry x="30" width="150" height="30" as="geometry">
            <mxRectangle width="150" height="30" as="alternateBounds" />
          </mxGeometry>
        </mxCell>
        <mxCell id="i_E2YTDbspMcnR8c5cFk-101" value="" style="shape=tableRow;horizontal=0;startSize=0;swimlaneHead=0;swimlaneBody=0;fillColor=none;collapsible=0;dropTarget=0;points=[[0,0.5],[1,0.5]];portConstraint=eastwest;top=0;left=0;right=0;bottom=0;swimlaneLine=1;sketch=1;curveFitting=1;jiggle=2;shadow=0;" parent="i_E2YTDbspMcnR8c5cFk-97" vertex="1">
          <mxGeometry y="60" width="180" height="30" as="geometry" />
        </mxCell>
        <mxCell id="i_E2YTDbspMcnR8c5cFk-102" value="&lt;span style=&quot;font-weight: 700;&quot;&gt;PK&lt;/span&gt;" style="shape=partialRectangle;connectable=0;fillColor=none;top=0;left=0;bottom=0;right=0;editable=1;overflow=hidden;whiteSpace=wrap;html=1;swimlaneLine=1;sketch=1;curveFitting=1;jiggle=2;shadow=0;" parent="i_E2YTDbspMcnR8c5cFk-101" vertex="1">
          <mxGeometry width="30" height="30" as="geometry">
            <mxRectangle width="30" height="30" as="alternateBounds" />
          </mxGeometry>
        </mxCell>
        <mxCell id="i_E2YTDbspMcnR8c5cFk-103" value="&lt;div style=&quot;font-family: Consolas, &amp;quot;Courier New&amp;quot;, monospace; font-size: 14px; line-height: 19px; white-space: pre;&quot;&gt;&lt;b&gt;&lt;u&gt;sender_id (FK)&lt;/u&gt;&lt;/b&gt;&lt;/div&gt;" style="shape=partialRectangle;connectable=0;fillColor=none;top=0;left=0;bottom=0;right=0;align=left;spacingLeft=6;overflow=hidden;whiteSpace=wrap;html=1;swimlaneLine=1;sketch=1;curveFitting=1;jiggle=2;shadow=0;" parent="i_E2YTDbspMcnR8c5cFk-101" vertex="1">
          <mxGeometry x="30" width="150" height="30" as="geometry">
            <mxRectangle width="150" height="30" as="alternateBounds" />
          </mxGeometry>
        </mxCell>
        <mxCell id="i_E2YTDbspMcnR8c5cFk-107" value="" style="shape=tableRow;horizontal=0;startSize=0;swimlaneHead=0;swimlaneBody=0;fillColor=none;collapsible=0;dropTarget=0;points=[[0,0.5],[1,0.5]];portConstraint=eastwest;top=0;left=0;right=0;bottom=0;swimlaneLine=1;sketch=1;curveFitting=1;jiggle=2;shadow=0;" parent="i_E2YTDbspMcnR8c5cFk-97" vertex="1">
          <mxGeometry y="90" width="180" height="30" as="geometry" />
        </mxCell>
        <mxCell id="i_E2YTDbspMcnR8c5cFk-108" value="" style="shape=partialRectangle;connectable=0;fillColor=none;top=0;left=0;bottom=0;right=0;editable=1;overflow=hidden;whiteSpace=wrap;html=1;swimlaneLine=1;sketch=1;curveFitting=1;jiggle=2;shadow=0;" parent="i_E2YTDbspMcnR8c5cFk-107" vertex="1">
          <mxGeometry width="30" height="30" as="geometry">
            <mxRectangle width="30" height="30" as="alternateBounds" />
          </mxGeometry>
        </mxCell>
        <mxCell id="i_E2YTDbspMcnR8c5cFk-109" value="&lt;div style=&quot;font-family: Consolas, &amp;quot;Courier New&amp;quot;, monospace; font-size: 14px; line-height: 19px; white-space: pre;&quot;&gt;accepted&lt;/div&gt;" style="shape=partialRectangle;connectable=0;fillColor=none;top=0;left=0;bottom=0;right=0;align=left;spacingLeft=6;overflow=hidden;whiteSpace=wrap;html=1;swimlaneLine=1;sketch=1;curveFitting=1;jiggle=2;shadow=0;" parent="i_E2YTDbspMcnR8c5cFk-107" vertex="1">
          <mxGeometry x="30" width="150" height="30" as="geometry">
            <mxRectangle width="150" height="30" as="alternateBounds" />
          </mxGeometry>
        </mxCell>
        <mxCell id="i_E2YTDbspMcnR8c5cFk-110" value="&lt;div style=&quot;font-family: Consolas, &amp;quot;Courier New&amp;quot;, monospace; font-size: 14px; line-height: 19px; white-space-collapse: preserve;&quot;&gt;&lt;font style=&quot;&quot; color=&quot;#000000&quot;&gt;musics&lt;/font&gt;&lt;/div&gt;" style="shape=table;startSize=30;container=1;collapsible=1;childLayout=tableLayout;fixedRows=1;rowLines=0;fontStyle=1;align=center;resizeLast=1;html=1;fillColor=#008a00;fontColor=#ffffff;strokeColor=#005700;swimlaneLine=1;sketch=1;curveFitting=1;jiggle=2;shadow=0;rounded=1;" parent="1" vertex="1">
          <mxGeometry x="720" y="650" width="180" height="270" as="geometry" />
        </mxCell>
        <mxCell id="i_E2YTDbspMcnR8c5cFk-111" value="" style="shape=tableRow;horizontal=0;startSize=0;swimlaneHead=0;swimlaneBody=0;fillColor=none;collapsible=0;dropTarget=0;points=[[0,0.5],[1,0.5]];portConstraint=eastwest;top=0;left=0;right=0;bottom=1;swimlaneLine=1;sketch=1;curveFitting=1;jiggle=2;shadow=0;" parent="i_E2YTDbspMcnR8c5cFk-110" vertex="1">
          <mxGeometry y="30" width="180" height="30" as="geometry" />
        </mxCell>
        <mxCell id="i_E2YTDbspMcnR8c5cFk-112" value="PK" style="shape=partialRectangle;connectable=0;fillColor=none;top=0;left=0;bottom=0;right=0;fontStyle=1;overflow=hidden;whiteSpace=wrap;html=1;swimlaneLine=1;sketch=1;curveFitting=1;jiggle=2;shadow=0;" parent="i_E2YTDbspMcnR8c5cFk-111" vertex="1">
          <mxGeometry width="30" height="30" as="geometry">
            <mxRectangle width="30" height="30" as="alternateBounds" />
          </mxGeometry>
        </mxCell>
        <mxCell id="i_E2YTDbspMcnR8c5cFk-113" value="&lt;font style=&quot;font-size: 14px;&quot;&gt;id&lt;/font&gt;" style="shape=partialRectangle;connectable=0;fillColor=none;top=0;left=0;bottom=0;right=0;align=left;spacingLeft=6;fontStyle=5;overflow=hidden;whiteSpace=wrap;html=1;swimlaneLine=1;sketch=1;curveFitting=1;jiggle=2;shadow=0;" parent="i_E2YTDbspMcnR8c5cFk-111" vertex="1">
          <mxGeometry x="30" width="150" height="30" as="geometry">
            <mxRectangle width="150" height="30" as="alternateBounds" />
          </mxGeometry>
        </mxCell>
        <mxCell id="i_E2YTDbspMcnR8c5cFk-114" value="" style="shape=tableRow;horizontal=0;startSize=0;swimlaneHead=0;swimlaneBody=0;fillColor=none;collapsible=0;dropTarget=0;points=[[0,0.5],[1,0.5]];portConstraint=eastwest;top=0;left=0;right=0;bottom=0;swimlaneLine=1;sketch=1;curveFitting=1;jiggle=2;shadow=0;" parent="i_E2YTDbspMcnR8c5cFk-110" vertex="1">
          <mxGeometry y="60" width="180" height="30" as="geometry" />
        </mxCell>
        <mxCell id="i_E2YTDbspMcnR8c5cFk-115" value="" style="shape=partialRectangle;connectable=0;fillColor=none;top=0;left=0;bottom=0;right=0;editable=1;overflow=hidden;whiteSpace=wrap;html=1;swimlaneLine=1;sketch=1;curveFitting=1;jiggle=2;shadow=0;" parent="i_E2YTDbspMcnR8c5cFk-114" vertex="1">
          <mxGeometry width="30" height="30" as="geometry">
            <mxRectangle width="30" height="30" as="alternateBounds" />
          </mxGeometry>
        </mxCell>
        <mxCell id="i_E2YTDbspMcnR8c5cFk-116" value="&lt;div style=&quot;font-family: Consolas, &amp;quot;Courier New&amp;quot;, monospace; font-size: 14px; line-height: 19px; white-space: pre;&quot;&gt;album_id &lt;span style=&quot;background-color: initial; font-family: Helvetica; white-space: normal;&quot;&gt;(FK)&lt;/span&gt;&lt;/div&gt;" style="shape=partialRectangle;connectable=0;fillColor=none;top=0;left=0;bottom=0;right=0;align=left;spacingLeft=6;overflow=hidden;whiteSpace=wrap;html=1;swimlaneLine=1;sketch=1;curveFitting=1;jiggle=2;shadow=0;" parent="i_E2YTDbspMcnR8c5cFk-114" vertex="1">
          <mxGeometry x="30" width="150" height="30" as="geometry">
            <mxRectangle width="150" height="30" as="alternateBounds" />
          </mxGeometry>
        </mxCell>
        <mxCell id="i_E2YTDbspMcnR8c5cFk-117" value="" style="shape=tableRow;horizontal=0;startSize=0;swimlaneHead=0;swimlaneBody=0;fillColor=none;collapsible=0;dropTarget=0;points=[[0,0.5],[1,0.5]];portConstraint=eastwest;top=0;left=0;right=0;bottom=0;swimlaneLine=1;sketch=1;curveFitting=1;jiggle=2;shadow=0;" parent="i_E2YTDbspMcnR8c5cFk-110" vertex="1">
          <mxGeometry y="90" width="180" height="30" as="geometry" />
        </mxCell>
        <mxCell id="i_E2YTDbspMcnR8c5cFk-118" value="" style="shape=partialRectangle;connectable=0;fillColor=none;top=0;left=0;bottom=0;right=0;editable=1;overflow=hidden;whiteSpace=wrap;html=1;swimlaneLine=1;sketch=1;curveFitting=1;jiggle=2;shadow=0;" parent="i_E2YTDbspMcnR8c5cFk-117" vertex="1">
          <mxGeometry width="30" height="30" as="geometry">
            <mxRectangle width="30" height="30" as="alternateBounds" />
          </mxGeometry>
        </mxCell>
        <mxCell id="i_E2YTDbspMcnR8c5cFk-119" value="&lt;div style=&quot;font-family: Consolas, &amp;quot;Courier New&amp;quot;, monospace; font-size: 14px; line-height: 19px; white-space: pre;&quot;&gt;name&lt;/div&gt;" style="shape=partialRectangle;connectable=0;fillColor=none;top=0;left=0;bottom=0;right=0;align=left;spacingLeft=6;overflow=hidden;whiteSpace=wrap;html=1;swimlaneLine=1;sketch=1;curveFitting=1;jiggle=2;shadow=0;" parent="i_E2YTDbspMcnR8c5cFk-117" vertex="1">
          <mxGeometry x="30" width="150" height="30" as="geometry">
            <mxRectangle width="150" height="30" as="alternateBounds" />
          </mxGeometry>
        </mxCell>
        <mxCell id="i_E2YTDbspMcnR8c5cFk-120" value="" style="shape=tableRow;horizontal=0;startSize=0;swimlaneHead=0;swimlaneBody=0;fillColor=none;collapsible=0;dropTarget=0;points=[[0,0.5],[1,0.5]];portConstraint=eastwest;top=0;left=0;right=0;bottom=0;swimlaneLine=1;sketch=1;curveFitting=1;jiggle=2;shadow=0;" parent="i_E2YTDbspMcnR8c5cFk-110" vertex="1">
          <mxGeometry y="120" width="180" height="30" as="geometry" />
        </mxCell>
        <mxCell id="i_E2YTDbspMcnR8c5cFk-121" value="" style="shape=partialRectangle;connectable=0;fillColor=none;top=0;left=0;bottom=0;right=0;editable=1;overflow=hidden;whiteSpace=wrap;html=1;swimlaneLine=1;sketch=1;curveFitting=1;jiggle=2;shadow=0;" parent="i_E2YTDbspMcnR8c5cFk-120" vertex="1">
          <mxGeometry width="30" height="30" as="geometry">
            <mxRectangle width="30" height="30" as="alternateBounds" />
          </mxGeometry>
        </mxCell>
        <mxCell id="i_E2YTDbspMcnR8c5cFk-122" value="&lt;div style=&quot;font-family: Consolas, &amp;quot;Courier New&amp;quot;, monospace; font-size: 14px; line-height: 19px; white-space: pre;&quot;&gt;genre&lt;/div&gt;" style="shape=partialRectangle;connectable=0;fillColor=none;top=0;left=0;bottom=0;right=0;align=left;spacingLeft=6;overflow=hidden;whiteSpace=wrap;html=1;swimlaneLine=1;sketch=1;curveFitting=1;jiggle=2;shadow=0;" parent="i_E2YTDbspMcnR8c5cFk-120" vertex="1">
          <mxGeometry x="30" width="150" height="30" as="geometry">
            <mxRectangle width="150" height="30" as="alternateBounds" />
          </mxGeometry>
        </mxCell>
        <mxCell id="i_E2YTDbspMcnR8c5cFk-123" value="" style="shape=tableRow;horizontal=0;startSize=0;swimlaneHead=0;swimlaneBody=0;fillColor=none;collapsible=0;dropTarget=0;points=[[0,0.5],[1,0.5]];portConstraint=eastwest;top=0;left=0;right=0;bottom=0;swimlaneLine=1;sketch=1;curveFitting=1;jiggle=2;shadow=0;" parent="i_E2YTDbspMcnR8c5cFk-110" vertex="1">
          <mxGeometry y="150" width="180" height="30" as="geometry" />
        </mxCell>
        <mxCell id="i_E2YTDbspMcnR8c5cFk-124" value="" style="shape=partialRectangle;connectable=0;fillColor=none;top=0;left=0;bottom=0;right=0;editable=1;overflow=hidden;whiteSpace=wrap;html=1;swimlaneLine=1;sketch=1;curveFitting=1;jiggle=2;shadow=0;" parent="i_E2YTDbspMcnR8c5cFk-123" vertex="1">
          <mxGeometry width="30" height="30" as="geometry">
            <mxRectangle width="30" height="30" as="alternateBounds" />
          </mxGeometry>
        </mxCell>
        <mxCell id="i_E2YTDbspMcnR8c5cFk-125" value="&lt;div style=&quot;font-family: Consolas, &amp;quot;Courier New&amp;quot;, monospace; font-size: 14px; line-height: 19px; white-space: pre;&quot;&gt;rangeage&lt;/div&gt;" style="shape=partialRectangle;connectable=0;fillColor=none;top=0;left=0;bottom=0;right=0;align=left;spacingLeft=6;overflow=hidden;whiteSpace=wrap;html=1;swimlaneLine=1;sketch=1;curveFitting=1;jiggle=2;shadow=0;" parent="i_E2YTDbspMcnR8c5cFk-123" vertex="1">
          <mxGeometry x="30" width="150" height="30" as="geometry">
            <mxRectangle width="150" height="30" as="alternateBounds" />
          </mxGeometry>
        </mxCell>
        <mxCell id="i_E2YTDbspMcnR8c5cFk-126" value="" style="shape=tableRow;horizontal=0;startSize=0;swimlaneHead=0;swimlaneBody=0;fillColor=none;collapsible=0;dropTarget=0;points=[[0,0.5],[1,0.5]];portConstraint=eastwest;top=0;left=0;right=0;bottom=0;swimlaneLine=1;sketch=1;curveFitting=1;jiggle=2;shadow=0;" parent="i_E2YTDbspMcnR8c5cFk-110" vertex="1">
          <mxGeometry y="180" width="180" height="30" as="geometry" />
        </mxCell>
        <mxCell id="i_E2YTDbspMcnR8c5cFk-127" value="" style="shape=partialRectangle;connectable=0;fillColor=none;top=0;left=0;bottom=0;right=0;editable=1;overflow=hidden;whiteSpace=wrap;html=1;swimlaneLine=1;sketch=1;curveFitting=1;jiggle=2;shadow=0;" parent="i_E2YTDbspMcnR8c5cFk-126" vertex="1">
          <mxGeometry width="30" height="30" as="geometry">
            <mxRectangle width="30" height="30" as="alternateBounds" />
          </mxGeometry>
        </mxCell>
        <mxCell id="i_E2YTDbspMcnR8c5cFk-128" value="&lt;div style=&quot;font-family: Consolas, &amp;quot;Courier New&amp;quot;, monospace; font-size: 14px; line-height: 19px; white-space: pre;&quot;&gt;image_url&lt;/div&gt;" style="shape=partialRectangle;connectable=0;fillColor=none;top=0;left=0;bottom=0;right=0;align=left;spacingLeft=6;overflow=hidden;whiteSpace=wrap;html=1;swimlaneLine=1;sketch=1;curveFitting=1;jiggle=2;shadow=0;" parent="i_E2YTDbspMcnR8c5cFk-126" vertex="1">
          <mxGeometry x="30" width="150" height="30" as="geometry">
            <mxRectangle width="150" height="30" as="alternateBounds" />
          </mxGeometry>
        </mxCell>
        <mxCell id="i_E2YTDbspMcnR8c5cFk-129" value="" style="shape=tableRow;horizontal=0;startSize=0;swimlaneHead=0;swimlaneBody=0;fillColor=none;collapsible=0;dropTarget=0;points=[[0,0.5],[1,0.5]];portConstraint=eastwest;top=0;left=0;right=0;bottom=0;swimlaneLine=1;sketch=1;curveFitting=1;jiggle=2;shadow=0;" parent="i_E2YTDbspMcnR8c5cFk-110" vertex="1">
          <mxGeometry y="210" width="180" height="30" as="geometry" />
        </mxCell>
        <mxCell id="i_E2YTDbspMcnR8c5cFk-130" value="" style="shape=partialRectangle;connectable=0;fillColor=none;top=0;left=0;bottom=0;right=0;editable=1;overflow=hidden;whiteSpace=wrap;html=1;swimlaneLine=1;sketch=1;curveFitting=1;jiggle=2;shadow=0;" parent="i_E2YTDbspMcnR8c5cFk-129" vertex="1">
          <mxGeometry width="30" height="30" as="geometry">
            <mxRectangle width="30" height="30" as="alternateBounds" />
          </mxGeometry>
        </mxCell>
        <mxCell id="i_E2YTDbspMcnR8c5cFk-131" value="&lt;div style=&quot;font-family: Consolas, &amp;quot;Courier New&amp;quot;, monospace; font-size: 14px; line-height: 19px; white-space: pre;&quot;&gt;can_add_to_playlist&lt;/div&gt;" style="shape=partialRectangle;connectable=0;fillColor=none;top=0;left=0;bottom=0;right=0;align=left;spacingLeft=6;overflow=hidden;whiteSpace=wrap;html=1;swimlaneLine=1;sketch=1;curveFitting=1;jiggle=2;shadow=0;" parent="i_E2YTDbspMcnR8c5cFk-129" vertex="1">
          <mxGeometry x="30" width="150" height="30" as="geometry">
            <mxRectangle width="150" height="30" as="alternateBounds" />
          </mxGeometry>
        </mxCell>
        <mxCell id="i_E2YTDbspMcnR8c5cFk-132" value="" style="shape=tableRow;horizontal=0;startSize=0;swimlaneHead=0;swimlaneBody=0;fillColor=none;collapsible=0;dropTarget=0;points=[[0,0.5],[1,0.5]];portConstraint=eastwest;top=0;left=0;right=0;bottom=0;swimlaneLine=1;sketch=1;curveFitting=1;jiggle=2;shadow=0;" parent="i_E2YTDbspMcnR8c5cFk-110" vertex="1">
          <mxGeometry y="240" width="180" height="30" as="geometry" />
        </mxCell>
        <mxCell id="i_E2YTDbspMcnR8c5cFk-133" value="" style="shape=partialRectangle;connectable=0;fillColor=none;top=0;left=0;bottom=0;right=0;editable=1;overflow=hidden;whiteSpace=wrap;html=1;swimlaneLine=1;sketch=1;curveFitting=1;jiggle=2;shadow=0;" parent="i_E2YTDbspMcnR8c5cFk-132" vertex="1">
          <mxGeometry width="30" height="30" as="geometry">
            <mxRectangle width="30" height="30" as="alternateBounds" />
          </mxGeometry>
        </mxCell>
        <mxCell id="i_E2YTDbspMcnR8c5cFk-134" value="&lt;font style=&quot;font-size: 14px;&quot;&gt;text&lt;/font&gt;" style="shape=partialRectangle;connectable=0;fillColor=none;top=0;left=0;bottom=0;right=0;align=left;spacingLeft=6;overflow=hidden;whiteSpace=wrap;html=1;swimlaneLine=1;sketch=1;curveFitting=1;jiggle=2;shadow=0;" parent="i_E2YTDbspMcnR8c5cFk-132" vertex="1">
          <mxGeometry x="30" width="150" height="30" as="geometry">
            <mxRectangle width="150" height="30" as="alternateBounds" />
          </mxGeometry>
        </mxCell>
        <mxCell id="i_E2YTDbspMcnR8c5cFk-141" value="&lt;div style=&quot;font-family: Consolas, &amp;quot;Courier New&amp;quot;, monospace; font-size: 14px; line-height: 19px; white-space-collapse: preserve;&quot;&gt;&lt;font style=&quot;&quot; color=&quot;#000000&quot;&gt;playlist_music&lt;/font&gt;&lt;/div&gt;" style="shape=table;startSize=30;container=1;collapsible=1;childLayout=tableLayout;fixedRows=1;rowLines=0;fontStyle=1;align=center;resizeLast=1;html=1;fillColor=#008a00;fontColor=#ffffff;strokeColor=#005700;swimlaneLine=1;sketch=1;curveFitting=1;jiggle=2;shadow=0;rounded=1;" parent="1" vertex="1">
          <mxGeometry x="50" y="960" width="180" height="90" as="geometry" />
        </mxCell>
        <mxCell id="i_E2YTDbspMcnR8c5cFk-142" value="" style="shape=tableRow;horizontal=0;startSize=0;swimlaneHead=0;swimlaneBody=0;fillColor=none;collapsible=0;dropTarget=0;points=[[0,0.5],[1,0.5]];portConstraint=eastwest;top=0;left=0;right=0;bottom=1;swimlaneLine=1;sketch=1;curveFitting=1;jiggle=2;shadow=0;" parent="i_E2YTDbspMcnR8c5cFk-141" vertex="1">
          <mxGeometry y="30" width="180" height="30" as="geometry" />
        </mxCell>
        <mxCell id="i_E2YTDbspMcnR8c5cFk-143" value="PK" style="shape=partialRectangle;connectable=0;fillColor=none;top=0;left=0;bottom=0;right=0;fontStyle=1;overflow=hidden;whiteSpace=wrap;html=1;swimlaneLine=1;sketch=1;curveFitting=1;jiggle=2;shadow=0;" parent="i_E2YTDbspMcnR8c5cFk-142" vertex="1">
          <mxGeometry width="30" height="30" as="geometry">
            <mxRectangle width="30" height="30" as="alternateBounds" />
          </mxGeometry>
        </mxCell>
        <mxCell id="i_E2YTDbspMcnR8c5cFk-144" value="&lt;span style=&quot;font-family: Consolas, &amp;quot;Courier New&amp;quot;, monospace; font-size: 14px; white-space: pre;&quot;&gt;music_id&lt;/span&gt;" style="shape=partialRectangle;connectable=0;fillColor=none;top=0;left=0;bottom=0;right=0;align=left;spacingLeft=6;fontStyle=5;overflow=hidden;whiteSpace=wrap;html=1;swimlaneLine=1;sketch=1;curveFitting=1;jiggle=2;shadow=0;" parent="i_E2YTDbspMcnR8c5cFk-142" vertex="1">
          <mxGeometry x="30" width="150" height="30" as="geometry">
            <mxRectangle width="150" height="30" as="alternateBounds" />
          </mxGeometry>
        </mxCell>
        <mxCell id="ane9JGgsB1Fdvep3CO5S-7" value="" style="shape=tableRow;horizontal=0;startSize=0;swimlaneHead=0;swimlaneBody=0;fillColor=none;collapsible=0;dropTarget=0;points=[[0,0.5],[1,0.5]];portConstraint=eastwest;top=0;left=0;right=0;bottom=1;swimlaneLine=1;sketch=1;curveFitting=1;jiggle=2;shadow=0;" parent="i_E2YTDbspMcnR8c5cFk-141" vertex="1">
          <mxGeometry y="60" width="180" height="30" as="geometry" />
        </mxCell>
        <mxCell id="ane9JGgsB1Fdvep3CO5S-8" value="PK" style="shape=partialRectangle;connectable=0;fillColor=none;top=0;left=0;bottom=0;right=0;fontStyle=1;overflow=hidden;whiteSpace=wrap;html=1;swimlaneLine=1;sketch=1;curveFitting=1;jiggle=2;shadow=0;" parent="ane9JGgsB1Fdvep3CO5S-7" vertex="1">
          <mxGeometry width="30" height="30" as="geometry">
            <mxRectangle width="30" height="30" as="alternateBounds" />
          </mxGeometry>
        </mxCell>
        <mxCell id="ane9JGgsB1Fdvep3CO5S-9" value="&lt;span style=&quot;font-family: Consolas, &amp;quot;Courier New&amp;quot;, monospace; font-size: 14px; white-space: pre;&quot;&gt;playlist_id (FK)&lt;/span&gt;" style="shape=partialRectangle;connectable=0;fillColor=none;top=0;left=0;bottom=0;right=0;align=left;spacingLeft=6;fontStyle=5;overflow=hidden;whiteSpace=wrap;html=1;swimlaneLine=1;sketch=1;curveFitting=1;jiggle=2;shadow=0;" parent="ane9JGgsB1Fdvep3CO5S-7" vertex="1">
          <mxGeometry x="30" width="150" height="30" as="geometry">
            <mxRectangle width="150" height="30" as="alternateBounds" />
          </mxGeometry>
        </mxCell>
        <mxCell id="i_E2YTDbspMcnR8c5cFk-154" value="&lt;div style=&quot;font-family: Consolas, &amp;quot;Courier New&amp;quot;, monospace; font-size: 14px; line-height: 19px; white-space-collapse: preserve;&quot;&gt;&lt;font style=&quot;&quot; color=&quot;#000000&quot;&gt;playlists&lt;/font&gt;&lt;/div&gt;" style="shape=table;startSize=30;container=1;collapsible=1;childLayout=tableLayout;fixedRows=1;rowLines=0;fontStyle=1;align=center;resizeLast=1;html=1;fillColor=#008a00;fontColor=#ffffff;strokeColor=#005700;swimlaneLine=1;sketch=1;curveFitting=1;jiggle=2;shadow=0;rounded=1;" parent="1" vertex="1">
          <mxGeometry x="50" y="1120" width="180" height="150" as="geometry" />
        </mxCell>
        <mxCell id="i_E2YTDbspMcnR8c5cFk-155" value="" style="shape=tableRow;horizontal=0;startSize=0;swimlaneHead=0;swimlaneBody=0;fillColor=none;collapsible=0;dropTarget=0;points=[[0,0.5],[1,0.5]];portConstraint=eastwest;top=0;left=0;right=0;bottom=1;swimlaneLine=1;sketch=1;curveFitting=1;jiggle=2;shadow=0;" parent="i_E2YTDbspMcnR8c5cFk-154" vertex="1">
          <mxGeometry y="30" width="180" height="30" as="geometry" />
        </mxCell>
        <mxCell id="i_E2YTDbspMcnR8c5cFk-156" value="PK" style="shape=partialRectangle;connectable=0;fillColor=none;top=0;left=0;bottom=0;right=0;fontStyle=1;overflow=hidden;whiteSpace=wrap;html=1;swimlaneLine=1;sketch=1;curveFitting=1;jiggle=2;shadow=0;" parent="i_E2YTDbspMcnR8c5cFk-155" vertex="1">
          <mxGeometry width="30" height="30" as="geometry">
            <mxRectangle width="30" height="30" as="alternateBounds" />
          </mxGeometry>
        </mxCell>
        <mxCell id="i_E2YTDbspMcnR8c5cFk-157" value="&lt;font style=&quot;font-size: 14px;&quot;&gt;id&lt;/font&gt;" style="shape=partialRectangle;connectable=0;fillColor=none;top=0;left=0;bottom=0;right=0;align=left;spacingLeft=6;fontStyle=5;overflow=hidden;whiteSpace=wrap;html=1;swimlaneLine=1;sketch=1;curveFitting=1;jiggle=2;shadow=0;" parent="i_E2YTDbspMcnR8c5cFk-155" vertex="1">
          <mxGeometry x="30" width="150" height="30" as="geometry">
            <mxRectangle width="150" height="30" as="alternateBounds" />
          </mxGeometry>
        </mxCell>
        <mxCell id="i_E2YTDbspMcnR8c5cFk-158" value="" style="shape=tableRow;horizontal=0;startSize=0;swimlaneHead=0;swimlaneBody=0;fillColor=none;collapsible=0;dropTarget=0;points=[[0,0.5],[1,0.5]];portConstraint=eastwest;top=0;left=0;right=0;bottom=0;swimlaneLine=1;sketch=1;curveFitting=1;jiggle=2;shadow=0;" parent="i_E2YTDbspMcnR8c5cFk-154" vertex="1">
          <mxGeometry y="60" width="180" height="30" as="geometry" />
        </mxCell>
        <mxCell id="i_E2YTDbspMcnR8c5cFk-159" value="" style="shape=partialRectangle;connectable=0;fillColor=none;top=0;left=0;bottom=0;right=0;editable=1;overflow=hidden;whiteSpace=wrap;html=1;swimlaneLine=1;sketch=1;curveFitting=1;jiggle=2;shadow=0;" parent="i_E2YTDbspMcnR8c5cFk-158" vertex="1">
          <mxGeometry width="30" height="30" as="geometry">
            <mxRectangle width="30" height="30" as="alternateBounds" />
          </mxGeometry>
        </mxCell>
        <mxCell id="i_E2YTDbspMcnR8c5cFk-160" value="&lt;div style=&quot;font-family: Consolas, &amp;quot;Courier New&amp;quot;, monospace; font-size: 14px; line-height: 19px; white-space: pre;&quot;&gt;owner_id &lt;span style=&quot;background-color: initial; font-family: Helvetica; white-space: normal;&quot;&gt;(FK)&lt;/span&gt;&lt;/div&gt;" style="shape=partialRectangle;connectable=0;fillColor=none;top=0;left=0;bottom=0;right=0;align=left;spacingLeft=6;overflow=hidden;whiteSpace=wrap;html=1;swimlaneLine=1;sketch=1;curveFitting=1;jiggle=2;shadow=0;" parent="i_E2YTDbspMcnR8c5cFk-158" vertex="1">
          <mxGeometry x="30" width="150" height="30" as="geometry">
            <mxRectangle width="150" height="30" as="alternateBounds" />
          </mxGeometry>
        </mxCell>
        <mxCell id="i_E2YTDbspMcnR8c5cFk-161" value="" style="shape=tableRow;horizontal=0;startSize=0;swimlaneHead=0;swimlaneBody=0;fillColor=none;collapsible=0;dropTarget=0;points=[[0,0.5],[1,0.5]];portConstraint=eastwest;top=0;left=0;right=0;bottom=0;swimlaneLine=1;sketch=1;curveFitting=1;jiggle=2;shadow=0;" parent="i_E2YTDbspMcnR8c5cFk-154" vertex="1">
          <mxGeometry y="90" width="180" height="30" as="geometry" />
        </mxCell>
        <mxCell id="i_E2YTDbspMcnR8c5cFk-162" value="" style="shape=partialRectangle;connectable=0;fillColor=none;top=0;left=0;bottom=0;right=0;editable=1;overflow=hidden;whiteSpace=wrap;html=1;swimlaneLine=1;sketch=1;curveFitting=1;jiggle=2;shadow=0;" parent="i_E2YTDbspMcnR8c5cFk-161" vertex="1">
          <mxGeometry width="30" height="30" as="geometry">
            <mxRectangle width="30" height="30" as="alternateBounds" />
          </mxGeometry>
        </mxCell>
        <mxCell id="i_E2YTDbspMcnR8c5cFk-163" value="&lt;div style=&quot;font-family: Consolas, &amp;quot;Courier New&amp;quot;, monospace; font-size: 14px; line-height: 19px; white-space: pre;&quot;&gt;is_public&lt;/div&gt;" style="shape=partialRectangle;connectable=0;fillColor=none;top=0;left=0;bottom=0;right=0;align=left;spacingLeft=6;overflow=hidden;whiteSpace=wrap;html=1;swimlaneLine=1;sketch=1;curveFitting=1;jiggle=2;shadow=0;" parent="i_E2YTDbspMcnR8c5cFk-161" vertex="1">
          <mxGeometry x="30" width="150" height="30" as="geometry">
            <mxRectangle width="150" height="30" as="alternateBounds" />
          </mxGeometry>
        </mxCell>
        <mxCell id="i_E2YTDbspMcnR8c5cFk-164" value="" style="shape=tableRow;horizontal=0;startSize=0;swimlaneHead=0;swimlaneBody=0;fillColor=none;collapsible=0;dropTarget=0;points=[[0,0.5],[1,0.5]];portConstraint=eastwest;top=0;left=0;right=0;bottom=0;swimlaneLine=1;sketch=1;curveFitting=1;jiggle=2;shadow=0;" parent="i_E2YTDbspMcnR8c5cFk-154" vertex="1">
          <mxGeometry y="120" width="180" height="30" as="geometry" />
        </mxCell>
        <mxCell id="i_E2YTDbspMcnR8c5cFk-165" value="" style="shape=partialRectangle;connectable=0;fillColor=none;top=0;left=0;bottom=0;right=0;editable=1;overflow=hidden;whiteSpace=wrap;html=1;swimlaneLine=1;sketch=1;curveFitting=1;jiggle=2;shadow=0;" parent="i_E2YTDbspMcnR8c5cFk-164" vertex="1">
          <mxGeometry width="30" height="30" as="geometry">
            <mxRectangle width="30" height="30" as="alternateBounds" />
          </mxGeometry>
        </mxCell>
        <mxCell id="i_E2YTDbspMcnR8c5cFk-166" value="&lt;font style=&quot;font-size: 14px;&quot;&gt;name&lt;/font&gt;" style="shape=partialRectangle;connectable=0;fillColor=none;top=0;left=0;bottom=0;right=0;align=left;spacingLeft=6;overflow=hidden;whiteSpace=wrap;html=1;swimlaneLine=1;sketch=1;curveFitting=1;jiggle=2;shadow=0;" parent="i_E2YTDbspMcnR8c5cFk-164" vertex="1">
          <mxGeometry x="30" width="150" height="30" as="geometry">
            <mxRectangle width="150" height="30" as="alternateBounds" />
          </mxGeometry>
        </mxCell>
        <mxCell id="i_E2YTDbspMcnR8c5cFk-167" value="&lt;div style=&quot;font-family: Consolas, &amp;quot;Courier New&amp;quot;, monospace; font-size: 14px; line-height: 19px; white-space-collapse: preserve;&quot;&gt;&lt;font style=&quot;&quot; color=&quot;#000000&quot;&gt;predictions&lt;/font&gt;&lt;/div&gt;" style="shape=table;startSize=30;container=1;collapsible=1;childLayout=tableLayout;fixedRows=1;rowLines=0;fontStyle=1;align=center;resizeLast=1;html=1;fillColor=#008a00;fontColor=#ffffff;strokeColor=#005700;swimlaneLine=1;sketch=1;curveFitting=1;jiggle=2;shadow=0;rounded=1;" parent="1" vertex="1">
          <mxGeometry x="360" y="1160" width="180" height="120" as="geometry" />
        </mxCell>
        <mxCell id="i_E2YTDbspMcnR8c5cFk-168" value="" style="shape=tableRow;horizontal=0;startSize=0;swimlaneHead=0;swimlaneBody=0;fillColor=none;collapsible=0;dropTarget=0;points=[[0,0.5],[1,0.5]];portConstraint=eastwest;top=0;left=0;right=0;bottom=1;swimlaneLine=1;sketch=1;curveFitting=1;jiggle=2;shadow=0;" parent="i_E2YTDbspMcnR8c5cFk-167" vertex="1">
          <mxGeometry y="30" width="180" height="30" as="geometry" />
        </mxCell>
        <mxCell id="i_E2YTDbspMcnR8c5cFk-169" value="PK" style="shape=partialRectangle;connectable=0;fillColor=none;top=0;left=0;bottom=0;right=0;fontStyle=1;overflow=hidden;whiteSpace=wrap;html=1;swimlaneLine=1;sketch=1;curveFitting=1;jiggle=2;shadow=0;" parent="i_E2YTDbspMcnR8c5cFk-168" vertex="1">
          <mxGeometry width="30" height="30" as="geometry">
            <mxRectangle width="30" height="30" as="alternateBounds" />
          </mxGeometry>
        </mxCell>
        <mxCell id="i_E2YTDbspMcnR8c5cFk-170" value="&lt;span style=&quot;font-family: Consolas, &amp;quot;Courier New&amp;quot;, monospace; font-size: 14px; white-space: pre;&quot;&gt;user_id (FK)&lt;/span&gt;" style="shape=partialRectangle;connectable=0;fillColor=none;top=0;left=0;bottom=0;right=0;align=left;spacingLeft=6;fontStyle=5;overflow=hidden;whiteSpace=wrap;html=1;swimlaneLine=1;sketch=1;curveFitting=1;jiggle=2;shadow=0;" parent="i_E2YTDbspMcnR8c5cFk-168" vertex="1">
          <mxGeometry x="30" width="150" height="30" as="geometry">
            <mxRectangle width="150" height="30" as="alternateBounds" />
          </mxGeometry>
        </mxCell>
        <mxCell id="ane9JGgsB1Fdvep3CO5S-1" value="" style="shape=tableRow;horizontal=0;startSize=0;swimlaneHead=0;swimlaneBody=0;fillColor=none;collapsible=0;dropTarget=0;points=[[0,0.5],[1,0.5]];portConstraint=eastwest;top=0;left=0;right=0;bottom=1;swimlaneLine=1;sketch=1;curveFitting=1;jiggle=2;shadow=0;" parent="i_E2YTDbspMcnR8c5cFk-167" vertex="1">
          <mxGeometry y="60" width="180" height="30" as="geometry" />
        </mxCell>
        <mxCell id="ane9JGgsB1Fdvep3CO5S-2" value="PK" style="shape=partialRectangle;connectable=0;fillColor=none;top=0;left=0;bottom=0;right=0;fontStyle=1;overflow=hidden;whiteSpace=wrap;html=1;swimlaneLine=1;sketch=1;curveFitting=1;jiggle=2;shadow=0;" parent="ane9JGgsB1Fdvep3CO5S-1" vertex="1">
          <mxGeometry width="30" height="30" as="geometry">
            <mxRectangle width="30" height="30" as="alternateBounds" />
          </mxGeometry>
        </mxCell>
        <mxCell id="ane9JGgsB1Fdvep3CO5S-3" value="&lt;span style=&quot;font-family: Consolas, &amp;quot;Courier New&amp;quot;, monospace; font-size: 14px; white-space: pre;&quot;&gt;music_id (FK)&lt;/span&gt;" style="shape=partialRectangle;connectable=0;fillColor=none;top=0;left=0;bottom=0;right=0;align=left;spacingLeft=6;fontStyle=5;overflow=hidden;whiteSpace=wrap;html=1;swimlaneLine=1;sketch=1;curveFitting=1;jiggle=2;shadow=0;" parent="ane9JGgsB1Fdvep3CO5S-1" vertex="1">
          <mxGeometry x="30" width="150" height="30" as="geometry">
            <mxRectangle width="150" height="30" as="alternateBounds" />
          </mxGeometry>
        </mxCell>
        <mxCell id="ane9JGgsB1Fdvep3CO5S-4" value="" style="shape=tableRow;horizontal=0;startSize=0;swimlaneHead=0;swimlaneBody=0;fillColor=none;collapsible=0;dropTarget=0;points=[[0,0.5],[1,0.5]];portConstraint=eastwest;top=0;left=0;right=0;bottom=1;swimlaneLine=1;sketch=1;curveFitting=1;jiggle=2;shadow=0;" parent="i_E2YTDbspMcnR8c5cFk-167" vertex="1">
          <mxGeometry y="90" width="180" height="30" as="geometry" />
        </mxCell>
        <mxCell id="ane9JGgsB1Fdvep3CO5S-5" value="PK" style="shape=partialRectangle;connectable=0;fillColor=none;top=0;left=0;bottom=0;right=0;fontStyle=1;overflow=hidden;whiteSpace=wrap;html=1;swimlaneLine=1;sketch=1;curveFitting=1;jiggle=2;shadow=0;" parent="ane9JGgsB1Fdvep3CO5S-4" vertex="1">
          <mxGeometry width="30" height="30" as="geometry">
            <mxRectangle width="30" height="30" as="alternateBounds" />
          </mxGeometry>
        </mxCell>
        <mxCell id="ane9JGgsB1Fdvep3CO5S-6" value="&lt;font style=&quot;font-size: 14px;&quot;&gt;rank&lt;/font&gt;" style="shape=partialRectangle;connectable=0;fillColor=none;top=0;left=0;bottom=0;right=0;align=left;spacingLeft=6;fontStyle=5;overflow=hidden;whiteSpace=wrap;html=1;swimlaneLine=1;sketch=1;curveFitting=1;jiggle=2;shadow=0;" parent="ane9JGgsB1Fdvep3CO5S-4" vertex="1">
          <mxGeometry x="30" width="150" height="30" as="geometry">
            <mxRectangle width="150" height="30" as="alternateBounds" />
          </mxGeometry>
        </mxCell>
        <mxCell id="i_E2YTDbspMcnR8c5cFk-180" value="&lt;div style=&quot;font-family: Consolas, &amp;quot;Courier New&amp;quot;, monospace; font-size: 14px; line-height: 19px; white-space-collapse: preserve;&quot;&gt;&lt;font style=&quot;&quot; color=&quot;#000000&quot;&gt;test&lt;/font&gt;&lt;/div&gt;" style="shape=table;startSize=30;container=1;collapsible=1;childLayout=tableLayout;fixedRows=1;rowLines=0;fontStyle=1;align=center;resizeLast=1;html=1;fillColor=#008a00;fontColor=#ffffff;strokeColor=#005700;swimlaneLine=1;sketch=1;curveFitting=1;jiggle=2;shadow=0;rounded=1;" parent="1" vertex="1">
          <mxGeometry x="680" y="1160" width="180" height="60" as="geometry" />
        </mxCell>
        <mxCell id="i_E2YTDbspMcnR8c5cFk-181" value="" style="shape=tableRow;horizontal=0;startSize=0;swimlaneHead=0;swimlaneBody=0;fillColor=none;collapsible=0;dropTarget=0;points=[[0,0.5],[1,0.5]];portConstraint=eastwest;top=0;left=0;right=0;bottom=1;swimlaneLine=1;sketch=1;curveFitting=1;jiggle=2;shadow=0;" parent="i_E2YTDbspMcnR8c5cFk-180" vertex="1">
          <mxGeometry y="30" width="180" height="30" as="geometry" />
        </mxCell>
        <mxCell id="i_E2YTDbspMcnR8c5cFk-182" value="PK" style="shape=partialRectangle;connectable=0;fillColor=none;top=0;left=0;bottom=0;right=0;fontStyle=1;overflow=hidden;whiteSpace=wrap;html=1;swimlaneLine=1;sketch=1;curveFitting=1;jiggle=2;shadow=0;" parent="i_E2YTDbspMcnR8c5cFk-181" vertex="1">
          <mxGeometry width="30" height="30" as="geometry">
            <mxRectangle width="30" height="30" as="alternateBounds" />
          </mxGeometry>
        </mxCell>
        <mxCell id="i_E2YTDbspMcnR8c5cFk-183" value="&lt;span style=&quot;font-family: Consolas, &amp;quot;Courier New&amp;quot;, monospace; font-size: 14px; white-space: pre;&quot;&gt;message&lt;/span&gt;" style="shape=partialRectangle;connectable=0;fillColor=none;top=0;left=0;bottom=0;right=0;align=left;spacingLeft=6;fontStyle=5;overflow=hidden;whiteSpace=wrap;html=1;swimlaneLine=1;sketch=1;curveFitting=1;jiggle=2;shadow=0;" parent="i_E2YTDbspMcnR8c5cFk-181" vertex="1">
          <mxGeometry x="30" width="150" height="30" as="geometry">
            <mxRectangle width="150" height="30" as="alternateBounds" />
          </mxGeometry>
        </mxCell>
        <mxCell id="i_E2YTDbspMcnR8c5cFk-193" value="&lt;div style=&quot;font-family: Consolas, &amp;quot;Courier New&amp;quot;, monospace; font-size: 14px; line-height: 19px; white-space-collapse: preserve;&quot;&gt;&lt;font style=&quot;&quot; color=&quot;#000000&quot;&gt;ticket&lt;/font&gt;&lt;/div&gt;" style="shape=table;startSize=30;container=1;collapsible=1;childLayout=tableLayout;fixedRows=1;rowLines=0;fontStyle=1;align=center;resizeLast=1;html=1;fillColor=#008a00;fontColor=#ffffff;strokeColor=#005700;swimlaneLine=1;sketch=1;curveFitting=1;jiggle=2;shadow=0;rounded=1;" parent="1" vertex="1">
          <mxGeometry x="40" y="1320" width="180" height="150" as="geometry" />
        </mxCell>
        <mxCell id="i_E2YTDbspMcnR8c5cFk-194" value="" style="shape=tableRow;horizontal=0;startSize=0;swimlaneHead=0;swimlaneBody=0;fillColor=none;collapsible=0;dropTarget=0;points=[[0,0.5],[1,0.5]];portConstraint=eastwest;top=0;left=0;right=0;bottom=1;swimlaneLine=1;sketch=1;curveFitting=1;jiggle=2;shadow=0;" parent="i_E2YTDbspMcnR8c5cFk-193" vertex="1">
          <mxGeometry y="30" width="180" height="30" as="geometry" />
        </mxCell>
        <mxCell id="i_E2YTDbspMcnR8c5cFk-195" value="PK" style="shape=partialRectangle;connectable=0;fillColor=none;top=0;left=0;bottom=0;right=0;fontStyle=1;overflow=hidden;whiteSpace=wrap;html=1;swimlaneLine=1;sketch=1;curveFitting=1;jiggle=2;shadow=0;" parent="i_E2YTDbspMcnR8c5cFk-194" vertex="1">
          <mxGeometry width="30" height="30" as="geometry">
            <mxRectangle width="30" height="30" as="alternateBounds" />
          </mxGeometry>
        </mxCell>
        <mxCell id="i_E2YTDbspMcnR8c5cFk-196" value="&lt;font style=&quot;font-size: 14px;&quot;&gt;id&lt;/font&gt;" style="shape=partialRectangle;connectable=0;fillColor=none;top=0;left=0;bottom=0;right=0;align=left;spacingLeft=6;fontStyle=5;overflow=hidden;whiteSpace=wrap;html=1;swimlaneLine=1;sketch=1;curveFitting=1;jiggle=2;shadow=0;" parent="i_E2YTDbspMcnR8c5cFk-194" vertex="1">
          <mxGeometry x="30" width="150" height="30" as="geometry">
            <mxRectangle width="150" height="30" as="alternateBounds" />
          </mxGeometry>
        </mxCell>
        <mxCell id="i_E2YTDbspMcnR8c5cFk-197" value="" style="shape=tableRow;horizontal=0;startSize=0;swimlaneHead=0;swimlaneBody=0;fillColor=none;collapsible=0;dropTarget=0;points=[[0,0.5],[1,0.5]];portConstraint=eastwest;top=0;left=0;right=0;bottom=0;swimlaneLine=1;sketch=1;curveFitting=1;jiggle=2;shadow=0;" parent="i_E2YTDbspMcnR8c5cFk-193" vertex="1">
          <mxGeometry y="60" width="180" height="30" as="geometry" />
        </mxCell>
        <mxCell id="i_E2YTDbspMcnR8c5cFk-198" value="" style="shape=partialRectangle;connectable=0;fillColor=none;top=0;left=0;bottom=0;right=0;editable=1;overflow=hidden;whiteSpace=wrap;html=1;swimlaneLine=1;sketch=1;curveFitting=1;jiggle=2;shadow=0;" parent="i_E2YTDbspMcnR8c5cFk-197" vertex="1">
          <mxGeometry width="30" height="30" as="geometry">
            <mxRectangle width="30" height="30" as="alternateBounds" />
          </mxGeometry>
        </mxCell>
        <mxCell id="i_E2YTDbspMcnR8c5cFk-199" value="&lt;div style=&quot;font-family: Consolas, &amp;quot;Courier New&amp;quot;, monospace; font-size: 14px; line-height: 19px; white-space: pre;&quot;&gt;user_id &lt;span style=&quot;background-color: initial; font-family: Helvetica; white-space: normal;&quot;&gt;(FK)&lt;/span&gt;&lt;/div&gt;" style="shape=partialRectangle;connectable=0;fillColor=none;top=0;left=0;bottom=0;right=0;align=left;spacingLeft=6;overflow=hidden;whiteSpace=wrap;html=1;swimlaneLine=1;sketch=1;curveFitting=1;jiggle=2;shadow=0;" parent="i_E2YTDbspMcnR8c5cFk-197" vertex="1">
          <mxGeometry x="30" width="150" height="30" as="geometry">
            <mxRectangle width="150" height="30" as="alternateBounds" />
          </mxGeometry>
        </mxCell>
        <mxCell id="i_E2YTDbspMcnR8c5cFk-200" value="" style="shape=tableRow;horizontal=0;startSize=0;swimlaneHead=0;swimlaneBody=0;fillColor=none;collapsible=0;dropTarget=0;points=[[0,0.5],[1,0.5]];portConstraint=eastwest;top=0;left=0;right=0;bottom=0;swimlaneLine=1;sketch=1;curveFitting=1;jiggle=2;shadow=0;" parent="i_E2YTDbspMcnR8c5cFk-193" vertex="1">
          <mxGeometry y="90" width="180" height="30" as="geometry" />
        </mxCell>
        <mxCell id="i_E2YTDbspMcnR8c5cFk-201" value="" style="shape=partialRectangle;connectable=0;fillColor=none;top=0;left=0;bottom=0;right=0;editable=1;overflow=hidden;whiteSpace=wrap;html=1;swimlaneLine=1;sketch=1;curveFitting=1;jiggle=2;shadow=0;" parent="i_E2YTDbspMcnR8c5cFk-200" vertex="1">
          <mxGeometry width="30" height="30" as="geometry">
            <mxRectangle width="30" height="30" as="alternateBounds" />
          </mxGeometry>
        </mxCell>
        <mxCell id="i_E2YTDbspMcnR8c5cFk-202" value="&lt;div style=&quot;font-family: Consolas, &amp;quot;Courier New&amp;quot;, monospace; font-size: 14px; line-height: 19px; white-space: pre;&quot;&gt;concert_id &lt;span style=&quot;background-color: initial; font-family: Helvetica; white-space: normal;&quot;&gt;(FK)&lt;/span&gt;&lt;/div&gt;" style="shape=partialRectangle;connectable=0;fillColor=none;top=0;left=0;bottom=0;right=0;align=left;spacingLeft=6;overflow=hidden;whiteSpace=wrap;html=1;swimlaneLine=1;sketch=1;curveFitting=1;jiggle=2;shadow=0;" parent="i_E2YTDbspMcnR8c5cFk-200" vertex="1">
          <mxGeometry x="30" width="150" height="30" as="geometry">
            <mxRectangle width="150" height="30" as="alternateBounds" />
          </mxGeometry>
        </mxCell>
        <mxCell id="i_E2YTDbspMcnR8c5cFk-203" value="" style="shape=tableRow;horizontal=0;startSize=0;swimlaneHead=0;swimlaneBody=0;fillColor=none;collapsible=0;dropTarget=0;points=[[0,0.5],[1,0.5]];portConstraint=eastwest;top=0;left=0;right=0;bottom=0;swimlaneLine=1;sketch=1;curveFitting=1;jiggle=2;shadow=0;" parent="i_E2YTDbspMcnR8c5cFk-193" vertex="1">
          <mxGeometry y="120" width="180" height="30" as="geometry" />
        </mxCell>
        <mxCell id="i_E2YTDbspMcnR8c5cFk-204" value="" style="shape=partialRectangle;connectable=0;fillColor=none;top=0;left=0;bottom=0;right=0;editable=1;overflow=hidden;whiteSpace=wrap;html=1;swimlaneLine=1;sketch=1;curveFitting=1;jiggle=2;shadow=0;" parent="i_E2YTDbspMcnR8c5cFk-203" vertex="1">
          <mxGeometry width="30" height="30" as="geometry">
            <mxRectangle width="30" height="30" as="alternateBounds" />
          </mxGeometry>
        </mxCell>
        <mxCell id="i_E2YTDbspMcnR8c5cFk-205" value="&lt;div style=&quot;font-family: Consolas, &amp;quot;Courier New&amp;quot;, monospace; font-size: 14px; line-height: 19px; white-space: pre;&quot;&gt;purchase_date&lt;/div&gt;" style="shape=partialRectangle;connectable=0;fillColor=none;top=0;left=0;bottom=0;right=0;align=left;spacingLeft=6;overflow=hidden;whiteSpace=wrap;html=1;swimlaneLine=1;sketch=1;curveFitting=1;jiggle=2;shadow=0;" parent="i_E2YTDbspMcnR8c5cFk-203" vertex="1">
          <mxGeometry x="30" width="150" height="30" as="geometry">
            <mxRectangle width="150" height="30" as="alternateBounds" />
          </mxGeometry>
        </mxCell>
        <mxCell id="i_E2YTDbspMcnR8c5cFk-206" value="&lt;div style=&quot;font-family: Consolas, &amp;quot;Courier New&amp;quot;, monospace; font-size: 14px; line-height: 19px; white-space-collapse: preserve;&quot;&gt;&lt;font style=&quot;&quot; color=&quot;#000000&quot;&gt;users&lt;/font&gt;&lt;/div&gt;" style="shape=table;startSize=30;container=1;collapsible=1;childLayout=tableLayout;fixedRows=1;rowLines=0;fontStyle=1;align=center;resizeLast=1;html=1;fillColor=#008a00;fontColor=#ffffff;strokeColor=#005700;swimlaneLine=1;sketch=1;curveFitting=1;jiggle=2;shadow=0;rounded=1;" parent="1" vertex="1">
          <mxGeometry x="360" y="1320" width="180" height="300" as="geometry" />
        </mxCell>
        <mxCell id="i_E2YTDbspMcnR8c5cFk-207" value="" style="shape=tableRow;horizontal=0;startSize=0;swimlaneHead=0;swimlaneBody=0;fillColor=none;collapsible=0;dropTarget=0;points=[[0,0.5],[1,0.5]];portConstraint=eastwest;top=0;left=0;right=0;bottom=1;swimlaneLine=1;sketch=1;curveFitting=1;jiggle=2;shadow=0;" parent="i_E2YTDbspMcnR8c5cFk-206" vertex="1">
          <mxGeometry y="30" width="180" height="30" as="geometry" />
        </mxCell>
        <mxCell id="i_E2YTDbspMcnR8c5cFk-208" value="PK" style="shape=partialRectangle;connectable=0;fillColor=none;top=0;left=0;bottom=0;right=0;fontStyle=1;overflow=hidden;whiteSpace=wrap;html=1;swimlaneLine=1;sketch=1;curveFitting=1;jiggle=2;shadow=0;" parent="i_E2YTDbspMcnR8c5cFk-207" vertex="1">
          <mxGeometry width="30" height="30" as="geometry">
            <mxRectangle width="30" height="30" as="alternateBounds" />
          </mxGeometry>
        </mxCell>
        <mxCell id="i_E2YTDbspMcnR8c5cFk-209" value="&lt;font style=&quot;font-size: 14px;&quot;&gt;id&lt;/font&gt;" style="shape=partialRectangle;connectable=0;fillColor=none;top=0;left=0;bottom=0;right=0;align=left;spacingLeft=6;fontStyle=5;overflow=hidden;whiteSpace=wrap;html=1;swimlaneLine=1;sketch=1;curveFitting=1;jiggle=2;shadow=0;" parent="i_E2YTDbspMcnR8c5cFk-207" vertex="1">
          <mxGeometry x="30" width="150" height="30" as="geometry">
            <mxRectangle width="150" height="30" as="alternateBounds" />
          </mxGeometry>
        </mxCell>
        <mxCell id="i_E2YTDbspMcnR8c5cFk-210" value="" style="shape=tableRow;horizontal=0;startSize=0;swimlaneHead=0;swimlaneBody=0;fillColor=none;collapsible=0;dropTarget=0;points=[[0,0.5],[1,0.5]];portConstraint=eastwest;top=0;left=0;right=0;bottom=0;swimlaneLine=1;sketch=1;curveFitting=1;jiggle=2;shadow=0;" parent="i_E2YTDbspMcnR8c5cFk-206" vertex="1">
          <mxGeometry y="60" width="180" height="30" as="geometry" />
        </mxCell>
        <mxCell id="i_E2YTDbspMcnR8c5cFk-211" value="" style="shape=partialRectangle;connectable=0;fillColor=none;top=0;left=0;bottom=0;right=0;editable=1;overflow=hidden;whiteSpace=wrap;html=1;swimlaneLine=1;sketch=1;curveFitting=1;jiggle=2;shadow=0;" parent="i_E2YTDbspMcnR8c5cFk-210" vertex="1">
          <mxGeometry width="30" height="30" as="geometry">
            <mxRectangle width="30" height="30" as="alternateBounds" />
          </mxGeometry>
        </mxCell>
        <mxCell id="i_E2YTDbspMcnR8c5cFk-212" value="&lt;div style=&quot;font-family: Consolas, &amp;quot;Courier New&amp;quot;, monospace; font-size: 14px; line-height: 19px; white-space: pre;&quot;&gt;username&lt;span style=&quot;white-space: pre;&quot;&gt;&#x9;&lt;span style=&quot;white-space: pre;&quot;&gt;&#x9;&lt;/span&gt;&lt;/span&gt;&lt;/div&gt;" style="shape=partialRectangle;connectable=0;fillColor=none;top=0;left=0;bottom=0;right=0;align=left;spacingLeft=6;overflow=hidden;whiteSpace=wrap;html=1;swimlaneLine=1;sketch=1;curveFitting=1;jiggle=2;shadow=0;" parent="i_E2YTDbspMcnR8c5cFk-210" vertex="1">
          <mxGeometry x="30" width="150" height="30" as="geometry">
            <mxRectangle width="150" height="30" as="alternateBounds" />
          </mxGeometry>
        </mxCell>
        <mxCell id="i_E2YTDbspMcnR8c5cFk-213" value="" style="shape=tableRow;horizontal=0;startSize=0;swimlaneHead=0;swimlaneBody=0;fillColor=none;collapsible=0;dropTarget=0;points=[[0,0.5],[1,0.5]];portConstraint=eastwest;top=0;left=0;right=0;bottom=0;swimlaneLine=1;sketch=1;curveFitting=1;jiggle=2;shadow=0;" parent="i_E2YTDbspMcnR8c5cFk-206" vertex="1">
          <mxGeometry y="90" width="180" height="30" as="geometry" />
        </mxCell>
        <mxCell id="i_E2YTDbspMcnR8c5cFk-214" value="" style="shape=partialRectangle;connectable=0;fillColor=none;top=0;left=0;bottom=0;right=0;editable=1;overflow=hidden;whiteSpace=wrap;html=1;swimlaneLine=1;sketch=1;curveFitting=1;jiggle=2;shadow=0;" parent="i_E2YTDbspMcnR8c5cFk-213" vertex="1">
          <mxGeometry width="30" height="30" as="geometry">
            <mxRectangle width="30" height="30" as="alternateBounds" />
          </mxGeometry>
        </mxCell>
        <mxCell id="i_E2YTDbspMcnR8c5cFk-215" value="&lt;font style=&quot;font-size: 14px;&quot;&gt;email&lt;/font&gt;" style="shape=partialRectangle;connectable=0;fillColor=none;top=0;left=0;bottom=0;right=0;align=left;spacingLeft=6;overflow=hidden;whiteSpace=wrap;html=1;swimlaneLine=1;sketch=1;curveFitting=1;jiggle=2;shadow=0;" parent="i_E2YTDbspMcnR8c5cFk-213" vertex="1">
          <mxGeometry x="30" width="150" height="30" as="geometry">
            <mxRectangle width="150" height="30" as="alternateBounds" />
          </mxGeometry>
        </mxCell>
        <mxCell id="i_E2YTDbspMcnR8c5cFk-216" value="" style="shape=tableRow;horizontal=0;startSize=0;swimlaneHead=0;swimlaneBody=0;fillColor=none;collapsible=0;dropTarget=0;points=[[0,0.5],[1,0.5]];portConstraint=eastwest;top=0;left=0;right=0;bottom=0;swimlaneLine=1;sketch=1;curveFitting=1;jiggle=2;shadow=0;" parent="i_E2YTDbspMcnR8c5cFk-206" vertex="1">
          <mxGeometry y="120" width="180" height="30" as="geometry" />
        </mxCell>
        <mxCell id="i_E2YTDbspMcnR8c5cFk-217" value="" style="shape=partialRectangle;connectable=0;fillColor=none;top=0;left=0;bottom=0;right=0;editable=1;overflow=hidden;whiteSpace=wrap;html=1;swimlaneLine=1;sketch=1;curveFitting=1;jiggle=2;shadow=0;" parent="i_E2YTDbspMcnR8c5cFk-216" vertex="1">
          <mxGeometry width="30" height="30" as="geometry">
            <mxRectangle width="30" height="30" as="alternateBounds" />
          </mxGeometry>
        </mxCell>
        <mxCell id="i_E2YTDbspMcnR8c5cFk-218" value="&lt;div style=&quot;font-family: Consolas, &amp;quot;Courier New&amp;quot;, monospace; font-size: 14px; line-height: 19px; white-space: pre;&quot;&gt;birthdate&lt;/div&gt;" style="shape=partialRectangle;connectable=0;fillColor=none;top=0;left=0;bottom=0;right=0;align=left;spacingLeft=6;overflow=hidden;whiteSpace=wrap;html=1;swimlaneLine=1;sketch=1;curveFitting=1;jiggle=2;shadow=0;" parent="i_E2YTDbspMcnR8c5cFk-216" vertex="1">
          <mxGeometry x="30" width="150" height="30" as="geometry">
            <mxRectangle width="150" height="30" as="alternateBounds" />
          </mxGeometry>
        </mxCell>
        <mxCell id="i_E2YTDbspMcnR8c5cFk-219" value="" style="shape=tableRow;horizontal=0;startSize=0;swimlaneHead=0;swimlaneBody=0;fillColor=none;collapsible=0;dropTarget=0;points=[[0,0.5],[1,0.5]];portConstraint=eastwest;top=0;left=0;right=0;bottom=0;swimlaneLine=1;sketch=1;curveFitting=1;jiggle=2;shadow=0;" parent="i_E2YTDbspMcnR8c5cFk-206" vertex="1">
          <mxGeometry y="150" width="180" height="30" as="geometry" />
        </mxCell>
        <mxCell id="i_E2YTDbspMcnR8c5cFk-220" value="" style="shape=partialRectangle;connectable=0;fillColor=none;top=0;left=0;bottom=0;right=0;editable=1;overflow=hidden;whiteSpace=wrap;html=1;swimlaneLine=1;sketch=1;curveFitting=1;jiggle=2;shadow=0;" parent="i_E2YTDbspMcnR8c5cFk-219" vertex="1">
          <mxGeometry width="30" height="30" as="geometry">
            <mxRectangle width="30" height="30" as="alternateBounds" />
          </mxGeometry>
        </mxCell>
        <mxCell id="i_E2YTDbspMcnR8c5cFk-221" value="&lt;div style=&quot;font-family: Consolas, &amp;quot;Courier New&amp;quot;, monospace; font-size: 14px; line-height: 19px; white-space: pre;&quot;&gt;address&lt;/div&gt;" style="shape=partialRectangle;connectable=0;fillColor=none;top=0;left=0;bottom=0;right=0;align=left;spacingLeft=6;overflow=hidden;whiteSpace=wrap;html=1;swimlaneLine=1;sketch=1;curveFitting=1;jiggle=2;shadow=0;" parent="i_E2YTDbspMcnR8c5cFk-219" vertex="1">
          <mxGeometry x="30" width="150" height="30" as="geometry">
            <mxRectangle width="150" height="30" as="alternateBounds" />
          </mxGeometry>
        </mxCell>
        <mxCell id="i_E2YTDbspMcnR8c5cFk-222" value="" style="shape=tableRow;horizontal=0;startSize=0;swimlaneHead=0;swimlaneBody=0;fillColor=none;collapsible=0;dropTarget=0;points=[[0,0.5],[1,0.5]];portConstraint=eastwest;top=0;left=0;right=0;bottom=0;swimlaneLine=1;sketch=1;curveFitting=1;jiggle=2;shadow=0;" parent="i_E2YTDbspMcnR8c5cFk-206" vertex="1">
          <mxGeometry y="180" width="180" height="30" as="geometry" />
        </mxCell>
        <mxCell id="i_E2YTDbspMcnR8c5cFk-223" value="" style="shape=partialRectangle;connectable=0;fillColor=none;top=0;left=0;bottom=0;right=0;editable=1;overflow=hidden;whiteSpace=wrap;html=1;swimlaneLine=1;sketch=1;curveFitting=1;jiggle=2;shadow=0;" parent="i_E2YTDbspMcnR8c5cFk-222" vertex="1">
          <mxGeometry width="30" height="30" as="geometry">
            <mxRectangle width="30" height="30" as="alternateBounds" />
          </mxGeometry>
        </mxCell>
        <mxCell id="i_E2YTDbspMcnR8c5cFk-224" value="&lt;div style=&quot;font-family: Consolas, &amp;quot;Courier New&amp;quot;, monospace; font-size: 14px; line-height: 19px; white-space: pre;&quot;&gt;has_membership&lt;/div&gt;" style="shape=partialRectangle;connectable=0;fillColor=none;top=0;left=0;bottom=0;right=0;align=left;spacingLeft=6;overflow=hidden;whiteSpace=wrap;html=1;swimlaneLine=1;sketch=1;curveFitting=1;jiggle=2;shadow=0;" parent="i_E2YTDbspMcnR8c5cFk-222" vertex="1">
          <mxGeometry x="30" width="150" height="30" as="geometry">
            <mxRectangle width="150" height="30" as="alternateBounds" />
          </mxGeometry>
        </mxCell>
        <mxCell id="i_E2YTDbspMcnR8c5cFk-225" value="" style="shape=tableRow;horizontal=0;startSize=0;swimlaneHead=0;swimlaneBody=0;fillColor=none;collapsible=0;dropTarget=0;points=[[0,0.5],[1,0.5]];portConstraint=eastwest;top=0;left=0;right=0;bottom=0;swimlaneLine=1;sketch=1;curveFitting=1;jiggle=2;shadow=0;" parent="i_E2YTDbspMcnR8c5cFk-206" vertex="1">
          <mxGeometry y="210" width="180" height="30" as="geometry" />
        </mxCell>
        <mxCell id="i_E2YTDbspMcnR8c5cFk-226" value="" style="shape=partialRectangle;connectable=0;fillColor=none;top=0;left=0;bottom=0;right=0;editable=1;overflow=hidden;whiteSpace=wrap;html=1;swimlaneLine=1;sketch=1;curveFitting=1;jiggle=2;shadow=0;" parent="i_E2YTDbspMcnR8c5cFk-225" vertex="1">
          <mxGeometry width="30" height="30" as="geometry">
            <mxRectangle width="30" height="30" as="alternateBounds" />
          </mxGeometry>
        </mxCell>
        <mxCell id="i_E2YTDbspMcnR8c5cFk-227" value="&lt;div style=&quot;font-family: Consolas, &amp;quot;Courier New&amp;quot;, monospace; font-size: 14px; line-height: 19px; white-space: pre;&quot;&gt;money&lt;/div&gt;" style="shape=partialRectangle;connectable=0;fillColor=none;top=0;left=0;bottom=0;right=0;align=left;spacingLeft=6;overflow=hidden;whiteSpace=wrap;html=1;swimlaneLine=1;sketch=1;curveFitting=1;jiggle=2;shadow=0;" parent="i_E2YTDbspMcnR8c5cFk-225" vertex="1">
          <mxGeometry x="30" width="150" height="30" as="geometry">
            <mxRectangle width="150" height="30" as="alternateBounds" />
          </mxGeometry>
        </mxCell>
        <mxCell id="i_E2YTDbspMcnR8c5cFk-228" value="" style="shape=tableRow;horizontal=0;startSize=0;swimlaneHead=0;swimlaneBody=0;fillColor=none;collapsible=0;dropTarget=0;points=[[0,0.5],[1,0.5]];portConstraint=eastwest;top=0;left=0;right=0;bottom=0;swimlaneLine=1;sketch=1;curveFitting=1;jiggle=2;shadow=0;" parent="i_E2YTDbspMcnR8c5cFk-206" vertex="1">
          <mxGeometry y="240" width="180" height="30" as="geometry" />
        </mxCell>
        <mxCell id="i_E2YTDbspMcnR8c5cFk-229" value="" style="shape=partialRectangle;connectable=0;fillColor=none;top=0;left=0;bottom=0;right=0;editable=1;overflow=hidden;whiteSpace=wrap;html=1;swimlaneLine=1;sketch=1;curveFitting=1;jiggle=2;shadow=0;" parent="i_E2YTDbspMcnR8c5cFk-228" vertex="1">
          <mxGeometry width="30" height="30" as="geometry">
            <mxRectangle width="30" height="30" as="alternateBounds" />
          </mxGeometry>
        </mxCell>
        <mxCell id="i_E2YTDbspMcnR8c5cFk-230" value="&lt;div style=&quot;font-family: Consolas, &amp;quot;Courier New&amp;quot;, monospace; font-size: 14px; line-height: 19px; white-space: pre;&quot;&gt;is_singer&lt;/div&gt;" style="shape=partialRectangle;connectable=0;fillColor=none;top=0;left=0;bottom=0;right=0;align=left;spacingLeft=6;overflow=hidden;whiteSpace=wrap;html=1;swimlaneLine=1;sketch=1;curveFitting=1;jiggle=2;shadow=0;" parent="i_E2YTDbspMcnR8c5cFk-228" vertex="1">
          <mxGeometry x="30" width="150" height="30" as="geometry">
            <mxRectangle width="150" height="30" as="alternateBounds" />
          </mxGeometry>
        </mxCell>
        <mxCell id="i_E2YTDbspMcnR8c5cFk-231" value="" style="shape=tableRow;horizontal=0;startSize=0;swimlaneHead=0;swimlaneBody=0;fillColor=none;collapsible=0;dropTarget=0;points=[[0,0.5],[1,0.5]];portConstraint=eastwest;top=0;left=0;right=0;bottom=0;swimlaneLine=1;sketch=1;curveFitting=1;jiggle=2;shadow=0;" parent="i_E2YTDbspMcnR8c5cFk-206" vertex="1">
          <mxGeometry y="270" width="180" height="30" as="geometry" />
        </mxCell>
        <mxCell id="i_E2YTDbspMcnR8c5cFk-232" value="" style="shape=partialRectangle;connectable=0;fillColor=none;top=0;left=0;bottom=0;right=0;editable=1;overflow=hidden;whiteSpace=wrap;html=1;swimlaneLine=1;sketch=1;curveFitting=1;jiggle=2;shadow=0;" parent="i_E2YTDbspMcnR8c5cFk-231" vertex="1">
          <mxGeometry width="30" height="30" as="geometry">
            <mxRectangle width="30" height="30" as="alternateBounds" />
          </mxGeometry>
        </mxCell>
        <mxCell id="i_E2YTDbspMcnR8c5cFk-233" value="&lt;div style=&quot;font-family: Consolas, &amp;quot;Courier New&amp;quot;, monospace; font-size: 14px; line-height: 19px; white-space: pre;&quot;&gt;password&lt;/div&gt;" style="shape=partialRectangle;connectable=0;fillColor=none;top=0;left=0;bottom=0;right=0;align=left;spacingLeft=6;overflow=hidden;whiteSpace=wrap;html=1;swimlaneLine=1;sketch=1;curveFitting=1;jiggle=2;shadow=0;" parent="i_E2YTDbspMcnR8c5cFk-231" vertex="1">
          <mxGeometry x="30" width="150" height="30" as="geometry">
            <mxRectangle width="150" height="30" as="alternateBounds" />
          </mxGeometry>
        </mxCell>
        <mxCell id="i_E2YTDbspMcnR8c5cFk-234" value="&lt;div style=&quot;font-family: Consolas, &amp;quot;Courier New&amp;quot;, monospace; font-size: 14px; line-height: 19px; white-space-collapse: preserve;&quot;&gt;&lt;font style=&quot;&quot; color=&quot;#000000&quot;&gt;playlistcomments&lt;/font&gt;&lt;/div&gt;" style="shape=table;startSize=30;container=1;collapsible=1;childLayout=tableLayout;fixedRows=1;rowLines=0;fontStyle=1;align=center;resizeLast=1;html=1;fillColor=#008a00;fontColor=#ffffff;strokeColor=#005700;swimlaneLine=1;sketch=1;curveFitting=1;jiggle=2;shadow=0;rounded=1;" parent="1" vertex="1">
          <mxGeometry x="370" y="960" width="180" height="150" as="geometry" />
        </mxCell>
        <mxCell id="i_E2YTDbspMcnR8c5cFk-235" value="" style="shape=tableRow;horizontal=0;startSize=0;swimlaneHead=0;swimlaneBody=0;fillColor=none;collapsible=0;dropTarget=0;points=[[0,0.5],[1,0.5]];portConstraint=eastwest;top=0;left=0;right=0;bottom=1;swimlaneLine=1;sketch=1;curveFitting=1;jiggle=2;shadow=0;" parent="i_E2YTDbspMcnR8c5cFk-234" vertex="1">
          <mxGeometry y="30" width="180" height="30" as="geometry" />
        </mxCell>
        <mxCell id="i_E2YTDbspMcnR8c5cFk-236" value="PK" style="shape=partialRectangle;connectable=0;fillColor=none;top=0;left=0;bottom=0;right=0;fontStyle=1;overflow=hidden;whiteSpace=wrap;html=1;swimlaneLine=1;sketch=1;curveFitting=1;jiggle=2;shadow=0;" parent="i_E2YTDbspMcnR8c5cFk-235" vertex="1">
          <mxGeometry width="30" height="30" as="geometry">
            <mxRectangle width="30" height="30" as="alternateBounds" />
          </mxGeometry>
        </mxCell>
        <mxCell id="i_E2YTDbspMcnR8c5cFk-237" value="&lt;font style=&quot;font-size: 14px;&quot;&gt;id&lt;/font&gt;" style="shape=partialRectangle;connectable=0;fillColor=none;top=0;left=0;bottom=0;right=0;align=left;spacingLeft=6;fontStyle=5;overflow=hidden;whiteSpace=wrap;html=1;swimlaneLine=1;sketch=1;curveFitting=1;jiggle=2;shadow=0;" parent="i_E2YTDbspMcnR8c5cFk-235" vertex="1">
          <mxGeometry x="30" width="150" height="30" as="geometry">
            <mxRectangle width="150" height="30" as="alternateBounds" />
          </mxGeometry>
        </mxCell>
        <mxCell id="i_E2YTDbspMcnR8c5cFk-238" value="" style="shape=tableRow;horizontal=0;startSize=0;swimlaneHead=0;swimlaneBody=0;fillColor=none;collapsible=0;dropTarget=0;points=[[0,0.5],[1,0.5]];portConstraint=eastwest;top=0;left=0;right=0;bottom=0;swimlaneLine=1;sketch=1;curveFitting=1;jiggle=2;shadow=0;" parent="i_E2YTDbspMcnR8c5cFk-234" vertex="1">
          <mxGeometry y="60" width="180" height="30" as="geometry" />
        </mxCell>
        <mxCell id="i_E2YTDbspMcnR8c5cFk-239" value="" style="shape=partialRectangle;connectable=0;fillColor=none;top=0;left=0;bottom=0;right=0;editable=1;overflow=hidden;whiteSpace=wrap;html=1;swimlaneLine=1;sketch=1;curveFitting=1;jiggle=2;shadow=0;" parent="i_E2YTDbspMcnR8c5cFk-238" vertex="1">
          <mxGeometry width="30" height="30" as="geometry">
            <mxRectangle width="30" height="30" as="alternateBounds" />
          </mxGeometry>
        </mxCell>
        <mxCell id="i_E2YTDbspMcnR8c5cFk-240" value="&lt;div style=&quot;font-family: Consolas, &amp;quot;Courier New&amp;quot;, monospace; font-size: 14px; line-height: 19px; white-space: pre;&quot;&gt;playlist_id &lt;span style=&quot;background-color: initial; font-family: Helvetica; white-space: normal;&quot;&gt;(FK)&lt;/span&gt;&lt;/div&gt;" style="shape=partialRectangle;connectable=0;fillColor=none;top=0;left=0;bottom=0;right=0;align=left;spacingLeft=6;overflow=hidden;whiteSpace=wrap;html=1;swimlaneLine=1;sketch=1;curveFitting=1;jiggle=2;shadow=0;" parent="i_E2YTDbspMcnR8c5cFk-238" vertex="1">
          <mxGeometry x="30" width="150" height="30" as="geometry">
            <mxRectangle width="150" height="30" as="alternateBounds" />
          </mxGeometry>
        </mxCell>
        <mxCell id="i_E2YTDbspMcnR8c5cFk-241" value="" style="shape=tableRow;horizontal=0;startSize=0;swimlaneHead=0;swimlaneBody=0;fillColor=none;collapsible=0;dropTarget=0;points=[[0,0.5],[1,0.5]];portConstraint=eastwest;top=0;left=0;right=0;bottom=0;swimlaneLine=1;sketch=1;curveFitting=1;jiggle=2;shadow=0;" parent="i_E2YTDbspMcnR8c5cFk-234" vertex="1">
          <mxGeometry y="90" width="180" height="30" as="geometry" />
        </mxCell>
        <mxCell id="i_E2YTDbspMcnR8c5cFk-242" value="" style="shape=partialRectangle;connectable=0;fillColor=none;top=0;left=0;bottom=0;right=0;editable=1;overflow=hidden;whiteSpace=wrap;html=1;swimlaneLine=1;sketch=1;curveFitting=1;jiggle=2;shadow=0;" parent="i_E2YTDbspMcnR8c5cFk-241" vertex="1">
          <mxGeometry width="30" height="30" as="geometry">
            <mxRectangle width="30" height="30" as="alternateBounds" />
          </mxGeometry>
        </mxCell>
        <mxCell id="i_E2YTDbspMcnR8c5cFk-243" value="&lt;div style=&quot;font-family: Consolas, &amp;quot;Courier New&amp;quot;, monospace; font-size: 14px; line-height: 19px; white-space: pre;&quot;&gt;user_id &lt;span style=&quot;background-color: initial; font-family: Helvetica; white-space: normal;&quot;&gt;(FK)&lt;/span&gt;&lt;/div&gt;" style="shape=partialRectangle;connectable=0;fillColor=none;top=0;left=0;bottom=0;right=0;align=left;spacingLeft=6;overflow=hidden;whiteSpace=wrap;html=1;swimlaneLine=1;sketch=1;curveFitting=1;jiggle=2;shadow=0;" parent="i_E2YTDbspMcnR8c5cFk-241" vertex="1">
          <mxGeometry x="30" width="150" height="30" as="geometry">
            <mxRectangle width="150" height="30" as="alternateBounds" />
          </mxGeometry>
        </mxCell>
        <mxCell id="i_E2YTDbspMcnR8c5cFk-244" value="" style="shape=tableRow;horizontal=0;startSize=0;swimlaneHead=0;swimlaneBody=0;fillColor=none;collapsible=0;dropTarget=0;points=[[0,0.5],[1,0.5]];portConstraint=eastwest;top=0;left=0;right=0;bottom=0;swimlaneLine=1;sketch=1;curveFitting=1;jiggle=2;shadow=0;" parent="i_E2YTDbspMcnR8c5cFk-234" vertex="1">
          <mxGeometry y="120" width="180" height="30" as="geometry" />
        </mxCell>
        <mxCell id="i_E2YTDbspMcnR8c5cFk-245" value="" style="shape=partialRectangle;connectable=0;fillColor=none;top=0;left=0;bottom=0;right=0;editable=1;overflow=hidden;whiteSpace=wrap;html=1;swimlaneLine=1;sketch=1;curveFitting=1;jiggle=2;shadow=0;" parent="i_E2YTDbspMcnR8c5cFk-244" vertex="1">
          <mxGeometry width="30" height="30" as="geometry">
            <mxRectangle width="30" height="30" as="alternateBounds" />
          </mxGeometry>
        </mxCell>
        <mxCell id="i_E2YTDbspMcnR8c5cFk-246" value="&lt;font style=&quot;font-size: 14px;&quot;&gt;text&lt;/font&gt;" style="shape=partialRectangle;connectable=0;fillColor=none;top=0;left=0;bottom=0;right=0;align=left;spacingLeft=6;overflow=hidden;whiteSpace=wrap;html=1;swimlaneLine=1;sketch=1;curveFitting=1;jiggle=2;shadow=0;" parent="i_E2YTDbspMcnR8c5cFk-244" vertex="1">
          <mxGeometry x="30" width="150" height="30" as="geometry">
            <mxRectangle width="150" height="30" as="alternateBounds" />
          </mxGeometry>
        </mxCell>
        <mxCell id="ane9JGgsB1Fdvep3CO5S-10" value="" style="endArrow=none;html=1;rounded=0;hachureGap=4;fontFamily=Architects Daughter;fontSource=https%3A%2F%2Ffonts.googleapis.com%2Fcss%3Ffamily%3DArchitects%2BDaughter;entryX=0.984;entryY=0.027;entryDx=0;entryDy=0;entryPerimeter=0;swimlaneLine=1;sketch=1;curveFitting=1;jiggle=2;shadow=0;" parent="1" edge="1">
          <mxGeometry relative="1" as="geometry">
            <mxPoint x="402.88" y="570" as="sourcePoint" />
            <mxPoint x="579.9999999999999" y="570.81" as="targetPoint" />
          </mxGeometry>
        </mxCell>
      </root>
    </mxGraphModel>
  </diagram>
  <diagram id="ziYBPrLxPukvIwSaEpri" name="Page-2">
    <mxGraphModel dx="1050" dy="617" grid="1" gridSize="10" guides="1" tooltips="1" connect="1" arrows="1" fold="1" page="1" pageScale="1" pageWidth="1700" pageHeight="1100" math="0" shadow="0">
      <root>
        <mxCell id="0" />
        <mxCell id="1" parent="0" />
      </root>
    </mxGraphModel>
  </diagram>
</mxfile>
